<svg width="424" height="84" viewBox="0 0 424 84" fill="none" xmlns="http://www.w3.org/2000/svg">
<circle cx="42" cy="42" r="40" fill="#00E874"/>
<path d="M25.8149 68V14.792H39.9989C45.4709 14.792 50.1269 15.776 53.9669 17.744C57.8549 19.712 60.8069 22.64 62.8229 26.528C64.8869 30.416 65.9189 35.312 65.9189 41.216C65.9189 47.072 64.8869 51.992 62.8229 55.976C60.8069 59.96 57.9029 62.96 54.1109 64.976C50.3189 66.992 45.7829 68 40.5029 68H25.8149ZM35.3189 60.296H39.3509C42.9029 60.296 45.9269 59.624 48.4229 58.28C50.9669 56.888 52.8869 54.776 54.1829 51.944C55.5269 49.112 56.1989 45.536 56.1989 41.216C56.1989 36.8 55.5269 33.224 54.1829 30.488C52.8869 27.752 50.9669 25.736 48.4229 24.44C45.9269 23.144 42.9029 22.496 39.3509 22.496H35.3189V60.296Z" fill="#292929"/>
<circle cx="110" cy="42" r="40" fill="#00E874"/>
<path d="M94.8657 68V14.792H126.906V22.784H104.37V36.32H123.45V44.312H104.37V60.008H127.698V68H94.8657Z" fill="#292929"/>
<circle cx="178" cy="42" r="40" fill="#00E874"/>
<path d="M178.636 69.008C174.988 69.008 171.508 68.336 168.196 66.992C164.884 65.6 161.98 63.68 159.484 61.232L164.956 54.68C166.876 56.504 169.036 57.968 171.436 59.072C173.884 60.176 176.332 60.728 178.78 60.728C181.804 60.728 184.084 60.104 185.62 58.856C187.204 57.608 187.996 55.976 187.996 53.96C187.996 52.472 187.636 51.272 186.916 50.36C186.196 49.448 185.212 48.68 183.964 48.056C182.764 47.384 181.372 46.712 179.788 46.04L172.516 42.944C170.788 42.224 169.084 41.264 167.404 40.064C165.772 38.864 164.404 37.352 163.3 35.528C162.244 33.656 161.716 31.448 161.716 28.904C161.716 26.024 162.484 23.456 164.02 21.2C165.556 18.944 167.668 17.168 170.356 15.872C173.092 14.528 176.188 13.856 179.644 13.856C182.764 13.856 185.764 14.456 188.644 15.656C191.524 16.856 193.996 18.512 196.06 20.624L191.164 26.672C189.484 25.232 187.708 24.104 185.836 23.288C184.012 22.472 181.948 22.064 179.644 22.064C177.148 22.064 175.156 22.616 173.668 23.72C172.18 24.824 171.436 26.336 171.436 28.256C171.436 29.648 171.82 30.8 172.588 31.712C173.404 32.624 174.436 33.392 175.684 34.016C176.98 34.592 178.372 35.192 179.86 35.816L186.988 38.768C189.1 39.632 190.948 40.712 192.532 42.008C194.164 43.256 195.436 44.792 196.348 46.616C197.26 48.392 197.716 50.576 197.716 53.168C197.716 56.048 196.948 58.688 195.412 61.088C193.924 63.488 191.74 65.408 188.86 66.848C186.028 68.288 182.62 69.008 178.636 69.008Z" fill="#292929"/>
<circle cx="246" cy="42" r="40" fill="#00E874"/>
<path d="M241.772 68V14.792H251.276V68H241.772Z" fill="#292929"/>
<circle cx="314" cy="42" r="40" fill="#00E874"/>
<path d="M315.565 69.008C310.765 69.008 306.469 67.952 302.677 65.84C298.933 63.68 295.957 60.56 293.749 56.48C291.541 52.4 290.437 47.432 290.437 41.576C290.437 37.208 291.085 33.32 292.381 29.912C293.677 26.504 295.453 23.6 297.709 21.2C300.013 18.8 302.677 16.976 305.701 15.728C308.773 14.48 312.085 13.856 315.637 13.856C319.429 13.856 322.645 14.552 325.285 15.944C327.925 17.336 330.085 18.896 331.765 20.624L326.653 26.672C325.309 25.376 323.797 24.296 322.117 23.432C320.485 22.52 318.421 22.064 315.925 22.064C312.805 22.064 310.069 22.856 307.717 24.44C305.365 25.976 303.517 28.184 302.173 31.064C300.877 33.896 300.229 37.304 300.229 41.288C300.229 45.32 300.829 48.8 302.029 51.728C303.277 54.608 305.101 56.84 307.501 58.424C309.949 59.96 312.949 60.728 316.501 60.728C317.989 60.728 319.405 60.536 320.749 60.152C322.093 59.72 323.173 59.144 323.989 58.424V46.976H313.981V39.128H332.557V62.672C330.781 64.448 328.405 65.96 325.429 67.208C322.453 68.408 319.165 69.008 315.565 69.008Z" fill="#292929"/>
<circle cx="382" cy="42" r="40" fill="#00E874"/>
<path d="M362.049 68V14.792H371.769L388.257 44.6L393.801 55.976H394.161C393.873 53.24 393.585 50.288 393.297 47.12C393.009 43.904 392.865 40.808 392.865 37.832V14.792H401.865V68H392.145L375.729 38.12L370.185 26.888H369.897C370.089 29.672 370.329 32.624 370.617 35.744C370.905 38.816 371.049 41.84 371.049 44.816V68H362.049Z" fill="#292929"/>
<path d="M76 63.0817L77.2741 62.29L76 60.2396L74.7259 62.29L76 63.0817ZM144 63.0817L145.274 62.29L144 60.2396L142.726 62.29L144 63.0817ZM212 63.0817L213.274 62.29L212 60.2396L210.726 62.29L212 63.0817ZM280 63.0817L281.274 62.29L280 60.2396L278.726 62.29L280 63.0817ZM348 63.0817L349.274 62.29L348 60.2396L346.726 62.29L348 63.0817ZM348 20.9183L346.726 21.71L348 23.7604L349.274 21.71L348 20.9183ZM280 20.9183L278.726 21.71L280 23.7604L281.274 21.71L280 20.9183ZM212 20.9183L210.726 21.71L212 23.7604L213.274 21.71L212 20.9183ZM144 20.9183L142.726 21.71L144 23.7604L145.274 21.71L144 20.9183ZM76 20.9183L74.7259 21.71L76 23.7604L77.2741 21.71L76 20.9183ZM73.652 63.9244C73.1796 64.605 73.3484 65.5396 74.029 66.0119C74.7096 66.4843 75.6442 66.3155 76.1166 65.6349L73.652 63.9244ZM73.5422 68.9703C74.0809 68.3409 74.0073 67.394 73.3779 66.8554C72.7485 66.3167 71.8017 66.3903 71.263 67.0197L73.5422 68.9703ZM68.5737 69.8585C67.9743 70.4304 67.9521 71.3798 68.524 71.9792C69.0959 72.5786 70.0453 72.6008 70.6447 72.0289L68.5737 69.8585ZM67.4536 74.7799C68.1076 74.2713 68.2255 73.3289 67.7169 72.675C67.2084 72.021 66.266 71.9031 65.612 72.4116L67.4536 74.7799ZM62.408 74.6523C61.706 75.0921 61.4933 76.0177 61.9331 76.7198C62.3729 77.4218 63.2985 77.6345 64.0006 77.1947L62.408 74.6523ZM60.3199 79.2475C61.063 78.8813 61.3686 77.9821 61.0024 77.239C60.6362 76.4959 59.737 76.1903 58.9939 76.5564L60.3199 79.2475ZM55.4042 78.1028C54.6276 78.3913 54.2319 79.2546 54.5204 80.0312C54.8088 80.8078 55.6722 81.2035 56.4488 80.9151L55.4042 78.1028ZM52.4277 82.1786C53.2297 81.971 53.7116 81.1526 53.504 80.3506C53.2965 79.5486 52.478 79.0667 51.676 79.2743L52.4277 82.1786ZM47.8473 80.059C47.0283 80.1838 46.4655 80.9488 46.5903 81.7678C46.715 82.5868 47.48 83.1496 48.299 83.0248L47.8473 80.059ZM44.1071 83.4474C44.9344 83.406 45.5716 82.7017 45.5302 81.8743C45.4888 81.0469 44.7845 80.4098 43.9571 80.4512L44.1071 83.4474ZM40.1089 80.4544C39.2814 80.4144 38.5782 81.0528 38.5382 81.8802C38.4982 82.7077 39.1366 83.4109 39.9641 83.4509L40.1089 80.4544ZM35.9103 83.0562C36.7299 83.1767 37.4921 82.61 37.6126 81.7904C37.7332 80.9708 37.1665 80.2087 36.3469 80.0881L35.9103 83.0562ZM32.6407 79.3548C31.837 79.1541 31.0227 79.643 30.822 80.4467C30.6213 81.2505 31.1102 82.0647 31.9139 82.2655L32.6407 79.3548ZM28.0148 81.0841C28.7948 81.3633 29.6534 80.9572 29.9325 80.1772C30.2116 79.3973 29.8056 78.5387 29.0256 78.2595L28.0148 81.0841ZM25.5362 76.8126C24.7875 76.4579 23.8931 76.7772 23.5384 77.5259C23.1837 78.2745 23.503 79.169 24.2517 79.5237L25.5362 76.8126ZM20.6609 77.6005C21.3711 78.027 22.2926 77.7971 22.7191 77.087C23.1457 76.3768 22.9158 75.4553 22.2056 75.0287L20.6609 77.6005ZM19.0655 72.9265C18.4005 72.4325 17.4609 72.5712 16.9669 73.2362C16.4729 73.9012 16.6115 74.8408 17.2765 75.3348L19.0655 72.9265ZM14.13 72.7496C14.7436 73.3061 15.6922 73.2598 16.2488 72.6461C16.8053 72.0324 16.7589 71.0838 16.1453 70.5273L14.13 72.7496ZM13.4727 67.8547C12.9162 67.241 11.9676 67.1947 11.3539 67.7512C10.7402 68.3078 10.6939 69.2564 11.2504 69.87L13.4727 67.8547ZM8.66522 66.7235C9.15922 67.3885 10.0988 67.5271 10.7638 67.0331C11.4288 66.5391 11.5675 65.5995 11.0735 64.9345L8.66522 66.7235ZM8.97126 61.7944C8.54469 61.0842 7.62319 60.8543 6.91303 61.2809C6.20286 61.7074 5.97295 62.6289 6.39951 63.3391L8.97126 61.7944ZM4.47633 59.7483C4.83104 60.497 5.72548 60.8163 6.47413 60.4616C7.22278 60.1069 7.54213 59.2125 7.18743 58.4638L4.47633 59.7483ZM5.74045 54.9744C5.46133 54.1944 4.60274 53.7884 3.82276 54.0675C3.04277 54.3466 2.63674 55.2052 2.91587 55.9852L5.74045 54.9744ZM1.73455 52.0861C1.93526 52.8898 2.74953 53.3787 3.55327 53.178C4.35702 52.9773 4.84588 52.163 4.64517 51.3593L1.73455 52.0861ZM3.9119 47.6531C3.79134 46.8335 3.02919 46.2668 2.20958 46.3874C1.38997 46.5079 0.823281 47.2701 0.943843 48.0897L3.9119 47.6531ZM0.5491 44.0359C0.589097 44.8634 1.29231 45.5018 2.11977 45.4618C2.94723 45.4218 3.5856 44.7186 3.5456 43.8911L0.5491 44.0359ZM3.5456 40.1089C3.5856 39.2814 2.94723 38.5782 2.11977 38.5382C1.29231 38.4982 0.589097 39.1366 0.5491 39.9641L3.5456 40.1089ZM0.943843 35.9103C0.823282 36.7299 1.38997 37.4921 2.20958 37.6126C3.02919 37.7332 3.79134 37.1665 3.9119 36.3469L0.943843 35.9103ZM4.64517 32.6407C4.84588 31.837 4.35702 31.0227 3.55327 30.822C2.74953 30.6213 1.93526 31.1102 1.73455 31.9139L4.64517 32.6407ZM2.91587 28.0148C2.63674 28.7948 3.04277 29.6534 3.82276 29.9325C4.60275 30.2116 5.46133 29.8056 5.74045 29.0256L2.91587 28.0148ZM7.18743 25.5362C7.54213 24.7875 7.22278 23.8931 6.47413 23.5384C5.72548 23.1837 4.83104 23.503 4.47633 24.2517L7.18743 25.5362ZM6.39951 20.6609C5.97295 21.3711 6.20286 22.2926 6.91303 22.7191C7.6232 23.1457 8.5447 22.9158 8.97126 22.2056L6.39951 20.6609ZM11.0735 19.0655C11.5675 18.4005 11.4288 17.4609 10.7638 16.9669C10.0988 16.4729 9.15922 16.6115 8.66522 17.2765L11.0735 19.0655ZM11.2504 14.13C10.6939 14.7436 10.7402 15.6922 11.3539 16.2488C11.9676 16.8053 12.9162 16.7589 13.4727 16.1453L11.2504 14.13ZM16.1453 13.4727C16.759 12.9162 16.8053 11.9676 16.2488 11.3539C15.6922 10.7402 14.7436 10.6939 14.13 11.2504L16.1453 13.4727ZM17.2765 8.66522C16.6115 9.15922 16.4729 10.0988 16.9669 10.7638C17.4609 11.4288 18.4005 11.5675 19.0655 11.0735L17.2765 8.66522ZM22.2056 8.97126C22.9158 8.54469 23.1457 7.62319 22.7191 6.91303C22.2926 6.20286 21.3711 5.97295 20.6609 6.39951L22.2056 8.97126ZM24.2517 4.47633C23.503 4.83104 23.1837 5.72548 23.5384 6.47413C23.8931 7.22278 24.7875 7.54213 25.5362 7.18743L24.2517 4.47633ZM29.0256 5.74045C29.8056 5.46133 30.2116 4.60274 29.9325 3.82276C29.6534 3.04277 28.7948 2.63674 28.0148 2.91587L29.0256 5.74045ZM31.9139 1.73455C31.1102 1.93526 30.6213 2.74953 30.822 3.55327C31.0227 4.35702 31.837 4.84588 32.6407 4.64517L31.9139 1.73455ZM36.3469 3.9119C37.1665 3.79134 37.7332 3.02919 37.6126 2.20958C37.4921 1.38997 36.7299 0.823281 35.9103 0.943843L36.3469 3.9119ZM39.9641 0.5491C39.1366 0.589097 38.4982 1.29231 38.5382 2.11977C38.5782 2.94723 39.2814 3.5856 40.1089 3.5456L39.9641 0.5491ZM43.9571 3.54885C44.7845 3.59025 45.4888 2.95308 45.5302 2.12569C45.5716 1.29829 44.9344 0.593998 44.107 0.552597L43.9571 3.54885ZM48.299 0.975177C47.48 0.850431 46.715 1.41322 46.5902 2.2322C46.4655 3.05118 47.0283 3.81622 47.8473 3.94097L48.299 0.975177ZM51.676 4.72572C52.478 4.93329 53.2965 4.45141 53.504 3.64941C53.7116 2.84741 53.2297 2.02899 52.4277 1.82142L51.676 4.72572ZM56.4488 3.08491C55.6722 2.79647 54.8088 3.19218 54.5204 3.96877C54.2319 4.74536 54.6276 5.60874 55.4042 5.89719L56.4488 3.08491ZM58.9939 7.44356C59.737 7.80972 60.6362 7.50414 61.0024 6.76103C61.3686 6.01792 61.063 5.11867 60.3199 4.75251L58.9939 7.44356ZM64.0006 6.80528C63.2985 6.36552 62.3729 6.57816 61.9331 7.28023C61.4933 7.9823 61.706 8.90793 62.408 9.3477L64.0006 6.80528ZM65.612 11.5884C66.266 12.0969 67.2084 11.979 67.7169 11.325C68.2255 10.6711 68.1075 9.72866 67.4536 9.22013L65.612 11.5884ZM70.6447 11.9711C70.0453 11.3992 69.0959 11.4214 68.524 12.0208C67.9521 12.6202 67.9743 13.5696 68.5737 14.1415L70.6447 11.9711ZM71.263 16.9803C71.8017 17.6097 72.7485 17.6833 73.3779 17.1446C74.0073 16.606 74.0809 15.6591 73.5422 15.0297L71.263 16.9803ZM76.1166 18.3651C75.6442 17.6845 74.7096 17.5157 74.029 17.9881C73.3484 18.4604 73.1796 19.395 73.652 20.0756L76.1166 18.3651ZM78.348 20.0756C78.8204 19.395 78.6516 18.4604 77.971 17.9881C77.2904 17.5157 76.3558 17.6845 75.8834 18.3651L78.348 20.0756ZM78.4578 15.0297C77.9191 15.6591 77.9927 16.606 78.6221 17.1446C79.2515 17.6833 80.1983 17.6097 80.737 16.9803L78.4578 15.0297ZM83.4263 14.1415C84.0257 13.5696 84.0479 12.6202 83.476 12.0208C82.9041 11.4214 81.9547 11.3992 81.3553 11.9711L83.4263 14.1415ZM84.5464 9.22013C83.8925 9.72866 83.7745 10.6711 84.2831 11.325C84.7916 11.979 85.734 12.0969 86.388 11.5884L84.5464 9.22013ZM89.592 9.3477C90.294 8.90793 90.5067 7.9823 90.0669 7.28023C89.6271 6.57816 88.7015 6.36552 87.9994 6.80528L89.592 9.3477ZM91.6801 4.75251C90.937 5.11867 90.6314 6.01792 90.9976 6.76103C91.3638 7.50414 92.263 7.80972 93.0061 7.44356L91.6801 4.75251ZM96.5958 5.89719C97.3724 5.60874 97.7681 4.74536 97.4796 3.96877C97.1912 3.19218 96.3278 2.79647 95.5512 3.08491L96.5958 5.89719ZM99.5723 1.82142C98.7703 2.02899 98.2884 2.84741 98.496 3.64941C98.7035 4.45141 99.522 4.93329 100.324 4.72572L99.5723 1.82142ZM104.153 3.94097C104.972 3.81622 105.534 3.05118 105.41 2.2322C105.285 1.41322 104.52 0.850432 103.701 0.975177L104.153 3.94097ZM107.893 0.552597C107.066 0.593998 106.428 1.29829 106.47 2.12569C106.511 2.95308 107.215 3.59025 108.043 3.54885L107.893 0.552597ZM111.957 3.54885C112.785 3.59025 113.489 2.95308 113.53 2.12569C113.572 1.29829 112.934 0.593998 112.107 0.552597L111.957 3.54885ZM116.299 0.975177C115.48 0.850431 114.715 1.41322 114.59 2.2322C114.466 3.05118 115.028 3.81622 115.847 3.94097L116.299 0.975177ZM119.676 4.72572C120.478 4.93329 121.296 4.45141 121.504 3.64941C121.712 2.84741 121.23 2.02899 120.428 1.82142L119.676 4.72572ZM124.449 3.08491C123.672 2.79647 122.809 3.19218 122.52 3.96877C122.232 4.74536 122.628 5.60874 123.404 5.89719L124.449 3.08491ZM126.994 7.44356C127.737 7.80972 128.636 7.50415 129.002 6.76103C129.369 6.01792 129.063 5.11868 128.32 4.75251L126.994 7.44356ZM132.001 6.80529C131.298 6.36552 130.373 6.57816 129.933 7.28023C129.493 7.9823 129.706 8.90794 130.408 9.3477L132.001 6.80529ZM133.612 11.5884C134.266 12.0969 135.208 11.979 135.717 11.325C136.225 10.6711 136.108 9.72866 135.454 9.22014L133.612 11.5884ZM138.645 11.9711C138.045 11.3992 137.096 11.4214 136.524 12.0208C135.952 12.6202 135.974 13.5696 136.574 14.1415L138.645 11.9711ZM139.263 16.9803C139.802 17.6097 140.749 17.6833 141.378 17.1446C142.007 16.606 142.081 15.6591 141.542 15.0297L139.263 16.9803ZM144.117 18.3651C143.644 17.6845 142.71 17.5157 142.029 17.9881C141.348 18.4604 141.18 19.395 141.652 20.0756L144.117 18.3651ZM146.348 20.0756C146.82 19.395 146.652 18.4604 145.971 17.9881C145.29 17.5157 144.356 17.6845 143.883 18.3651L146.348 20.0756ZM146.458 15.0297C145.919 15.6591 145.993 16.606 146.622 17.1446C147.251 17.6833 148.198 17.6097 148.737 16.9803L146.458 15.0297ZM151.426 14.1415C152.026 13.5696 152.048 12.6202 151.476 12.0208C150.904 11.4214 149.955 11.3992 149.355 11.9711L151.426 14.1415ZM152.546 9.22013C151.892 9.72866 151.775 10.6711 152.283 11.325C152.792 11.979 153.734 12.0969 154.388 11.5884L152.546 9.22013ZM157.592 9.3477C158.294 8.90793 158.507 7.9823 158.067 7.28023C157.627 6.57816 156.702 6.36552 155.999 6.80528L157.592 9.3477ZM159.68 4.75251C158.937 5.11867 158.631 6.01792 158.998 6.76103C159.364 7.50414 160.263 7.80972 161.006 7.44356L159.68 4.75251ZM164.596 5.89719C165.372 5.60874 165.768 4.74536 165.48 3.96877C165.191 3.19218 164.328 2.79647 163.551 3.08491L164.596 5.89719ZM167.572 1.82142C166.77 2.02899 166.288 2.84742 166.496 3.64942C166.704 4.45142 167.522 4.93329 168.324 4.72572L167.572 1.82142ZM172.153 3.94097C172.972 3.81622 173.534 3.05118 173.41 2.2322C173.285 1.41322 172.52 0.850432 171.701 0.975177L172.153 3.94097ZM175.893 0.552597C175.066 0.593998 174.428 1.29829 174.47 2.12569C174.511 2.95308 175.215 3.59025 176.043 3.54885L175.893 0.552597ZM179.957 3.54885C180.785 3.59025 181.489 2.95308 181.53 2.12569C181.572 1.29829 180.934 0.593998 180.107 0.552597L179.957 3.54885ZM184.299 0.975177C183.48 0.850431 182.715 1.41322 182.59 2.2322C182.466 3.05118 183.028 3.81622 183.847 3.94097L184.299 0.975177ZM187.676 4.72572C188.478 4.93329 189.296 4.45141 189.504 3.64941C189.712 2.84741 189.23 2.02899 188.428 1.82142L187.676 4.72572ZM192.449 3.08491C191.672 2.79647 190.809 3.19218 190.52 3.96877C190.232 4.74536 190.628 5.60874 191.404 5.89719L192.449 3.08491ZM194.994 7.44356C195.737 7.80972 196.636 7.50415 197.002 6.76103C197.369 6.01792 197.063 5.11868 196.32 4.75251L194.994 7.44356ZM200.001 6.80529C199.298 6.36552 198.373 6.57816 197.933 7.28023C197.493 7.9823 197.706 8.90794 198.408 9.3477L200.001 6.80529ZM201.612 11.5884C202.266 12.0969 203.208 11.979 203.717 11.325C204.225 10.6711 204.108 9.72866 203.454 9.22014L201.612 11.5884ZM206.645 11.9711C206.045 11.3992 205.096 11.4214 204.524 12.0208C203.952 12.6202 203.974 13.5696 204.574 14.1415L206.645 11.9711ZM207.263 16.9803C207.802 17.6097 208.749 17.6833 209.378 17.1446C210.007 16.606 210.081 15.6591 209.542 15.0297L207.263 16.9803ZM212.117 18.3651C211.644 17.6845 210.71 17.5157 210.029 17.9881C209.348 18.4604 209.18 19.395 209.652 20.0756L212.117 18.3651ZM214.348 20.0756C214.82 19.395 214.652 18.4604 213.971 17.9881C213.29 17.5157 212.356 17.6845 211.883 18.3651L214.348 20.0756ZM214.458 15.0297C213.919 15.6591 213.993 16.606 214.622 17.1446C215.251 17.6833 216.198 17.6097 216.737 16.9803L214.458 15.0297ZM219.426 14.1415C220.026 13.5696 220.048 12.6202 219.476 12.0208C218.904 11.4214 217.955 11.3992 217.355 11.9711L219.426 14.1415ZM220.546 9.22013C219.892 9.72866 219.775 10.6711 220.283 11.325C220.792 11.979 221.734 12.0969 222.388 11.5884L220.546 9.22013ZM225.592 9.3477C226.294 8.90793 226.507 7.9823 226.067 7.28023C225.627 6.57816 224.702 6.36552 223.999 6.80528L225.592 9.3477ZM227.68 4.75251C226.937 5.11867 226.631 6.01792 226.998 6.76103C227.364 7.50414 228.263 7.80972 229.006 7.44356L227.68 4.75251ZM232.596 5.89719C233.372 5.60874 233.768 4.74536 233.48 3.96877C233.191 3.19218 232.328 2.79647 231.551 3.08491L232.596 5.89719ZM235.572 1.82142C234.77 2.02899 234.288 2.84742 234.496 3.64942C234.704 4.45142 235.522 4.93329 236.324 4.72572L235.572 1.82142ZM240.153 3.94097C240.972 3.81622 241.534 3.05118 241.41 2.2322C241.285 1.41322 240.52 0.850432 239.701 0.975177L240.153 3.94097ZM243.893 0.552597C243.066 0.593998 242.428 1.29829 242.47 2.12569C242.511 2.95308 243.215 3.59025 244.043 3.54885L243.893 0.552597ZM247.957 3.54885C248.785 3.59025 249.489 2.95308 249.53 2.12568C249.572 1.29829 248.934 0.593997 248.107 0.552597L247.957 3.54885ZM252.299 0.975176C251.48 0.85043 250.715 1.41322 250.59 2.2322C250.466 3.05118 251.028 3.81622 251.847 3.94097L252.299 0.975176ZM255.676 4.72571C256.478 4.93329 257.296 4.45141 257.504 3.64941C257.712 2.84741 257.23 2.02899 256.428 1.82141L255.676 4.72571ZM260.449 3.08491C259.672 2.79646 258.809 3.19218 258.52 3.96877C258.232 4.74535 258.628 5.60874 259.404 5.89718L260.449 3.08491ZM262.994 7.44355C263.737 7.80972 264.636 7.50414 265.002 6.76103C265.369 6.01791 265.063 5.11867 264.32 4.7525L262.994 7.44355ZM268.001 6.80528C267.298 6.36551 266.373 6.57815 265.933 7.28022C265.493 7.98229 265.706 8.90793 266.408 9.34769L268.001 6.80528ZM269.612 11.5884C270.266 12.0969 271.208 11.979 271.717 11.325C272.225 10.671 272.108 9.72865 271.454 9.22013L269.612 11.5884ZM274.645 11.9711C274.045 11.3992 273.096 11.4214 272.524 12.0208C271.952 12.6202 271.974 13.5696 272.574 14.1415L274.645 11.9711ZM275.263 16.9803C275.802 17.6097 276.749 17.6833 277.378 17.1446C278.007 16.6059 278.081 15.6591 277.542 15.0297L275.263 16.9803ZM280.117 18.3651C279.644 17.6845 278.71 17.5157 278.029 17.9881C277.348 18.4604 277.18 19.395 277.652 20.0756L280.117 18.3651ZM282.348 20.0756C282.82 19.395 282.652 18.4604 281.971 17.9881C281.29 17.5157 280.356 17.6845 279.883 18.3651L282.348 20.0756ZM282.458 15.0297C281.919 15.6591 281.993 16.606 282.622 17.1446C283.251 17.6833 284.198 17.6097 284.737 16.9803L282.458 15.0297ZM287.426 14.1415C288.026 13.5696 288.048 12.6202 287.476 12.0208C286.904 11.4214 285.955 11.3992 285.355 11.9711L287.426 14.1415ZM288.546 9.22013C287.892 9.72865 287.775 10.671 288.283 11.325C288.792 11.979 289.734 12.0969 290.388 11.5884L288.546 9.22013ZM293.592 9.34769C294.294 8.90793 294.507 7.98229 294.067 7.28022C293.627 6.57815 292.702 6.36551 291.999 6.80528L293.592 9.34769ZM295.68 4.7525C294.937 5.11867 294.631 6.01791 294.998 6.76103C295.364 7.50414 296.263 7.80972 297.006 7.44355L295.68 4.7525ZM300.596 5.89718C301.372 5.60874 301.768 4.74535 301.48 3.96877C301.191 3.19218 300.328 2.79646 299.551 3.08491L300.596 5.89718ZM303.572 1.82141C302.77 2.02899 302.288 2.84741 302.496 3.64941C302.704 4.45141 303.522 4.93329 304.324 4.72571L303.572 1.82141ZM308.153 3.94097C308.972 3.81622 309.534 3.05118 309.41 2.2322C309.285 1.41322 308.52 0.850431 307.701 0.975176L308.153 3.94097ZM311.893 0.552597C311.066 0.593998 310.428 1.29829 310.47 2.12569C310.511 2.95308 311.215 3.59025 312.043 3.54885L311.893 0.552597ZM315.957 3.54885C316.785 3.59025 317.489 2.95308 317.53 2.12568C317.572 1.29829 316.934 0.593997 316.107 0.552597L315.957 3.54885ZM320.299 0.975176C319.48 0.85043 318.715 1.41322 318.59 2.2322C318.466 3.05118 319.028 3.81622 319.847 3.94097L320.299 0.975176ZM323.676 4.72571C324.478 4.93329 325.296 4.45141 325.504 3.64941C325.712 2.84741 325.23 2.02899 324.428 1.82141L323.676 4.72571ZM328.449 3.08491C327.672 2.79646 326.809 3.19218 326.52 3.96877C326.232 4.74535 326.628 5.60874 327.404 5.89718L328.449 3.08491ZM330.994 7.44355C331.737 7.80972 332.636 7.50414 333.002 6.76103C333.369 6.01791 333.063 5.11867 332.32 4.7525L330.994 7.44355ZM336.001 6.80528C335.298 6.36551 334.373 6.57815 333.933 7.28022C333.493 7.98229 333.706 8.90793 334.408 9.34769L336.001 6.80528ZM337.612 11.5884C338.266 12.0969 339.208 11.979 339.717 11.325C340.225 10.671 340.108 9.72865 339.454 9.22013L337.612 11.5884ZM342.645 11.9711C342.045 11.3992 341.096 11.4214 340.524 12.0208C339.952 12.6202 339.974 13.5696 340.574 14.1415L342.645 11.9711ZM343.263 16.9803C343.802 17.6097 344.749 17.6833 345.378 17.1446C346.007 16.6059 346.081 15.6591 345.542 15.0297L343.263 16.9803ZM348.117 18.3651C347.644 17.6845 346.71 17.5157 346.029 17.9881C345.348 18.4604 345.18 19.395 345.652 20.0756L348.117 18.3651ZM350.348 20.0756C350.82 19.395 350.652 18.4604 349.971 17.9881C349.29 17.5157 348.356 17.6845 347.883 18.3651L350.348 20.0756ZM350.458 15.0297C349.919 15.6591 349.993 16.606 350.622 17.1446C351.251 17.6833 352.198 17.6097 352.737 16.9803L350.458 15.0297ZM355.426 14.1415C356.026 13.5696 356.048 12.6202 355.476 12.0208C354.904 11.4214 353.955 11.3992 353.355 11.9711L355.426 14.1415ZM356.546 9.22013C355.892 9.72865 355.775 10.671 356.283 11.325C356.792 11.979 357.734 12.0969 358.388 11.5884L356.546 9.22013ZM361.592 9.34769C362.294 8.90793 362.507 7.98229 362.067 7.28022C361.627 6.57815 360.702 6.36551 359.999 6.80528L361.592 9.34769ZM363.68 4.7525C362.937 5.11867 362.631 6.01791 362.998 6.76103C363.364 7.50414 364.263 7.80972 365.006 7.44355L363.68 4.7525ZM368.596 5.89718C369.372 5.60874 369.768 4.74535 369.48 3.96877C369.191 3.19218 368.328 2.79646 367.551 3.08491L368.596 5.89718ZM371.572 1.82141C370.77 2.02899 370.288 2.84741 370.496 3.64941C370.704 4.45141 371.522 4.93329 372.324 4.72571L371.572 1.82141ZM376.153 3.94097C376.972 3.81622 377.534 3.05118 377.41 2.2322C377.285 1.41322 376.52 0.850431 375.701 0.975176L376.153 3.94097ZM379.893 0.552597C379.066 0.593998 378.428 1.29829 378.47 2.12569C378.511 2.95308 379.215 3.59025 380.043 3.54885L379.893 0.552597ZM383.891 3.5456C384.719 3.5856 385.422 2.94723 385.462 2.11977C385.502 1.29231 384.863 0.589097 384.036 0.5491L383.891 3.5456ZM388.09 0.943843C387.27 0.823281 386.508 1.38997 386.387 2.20958C386.267 3.02919 386.834 3.79134 387.653 3.9119L388.09 0.943843ZM391.359 4.64517C392.163 4.84588 392.977 4.35702 393.178 3.55327C393.379 2.74953 392.89 1.93526 392.086 1.73455L391.359 4.64517ZM395.985 2.91587C395.205 2.63674 394.347 3.04277 394.067 3.82276C393.788 4.60274 394.194 5.46133 394.974 5.74045L395.985 2.91587ZM398.464 7.18743C399.212 7.54213 400.107 7.22278 400.462 6.47413C400.816 5.72548 400.497 4.83104 399.748 4.47633L398.464 7.18743ZM403.339 6.39951C402.629 5.97295 401.707 6.20286 401.281 6.91303C400.854 7.62319 401.084 8.54469 401.794 8.97125L403.339 6.39951ZM404.935 11.0735C405.6 11.5675 406.539 11.4288 407.033 10.7638C407.527 10.0988 407.389 9.15922 406.723 8.66522L404.935 11.0735ZM409.87 11.2504C409.256 10.6939 408.308 10.7402 407.751 11.3539C407.195 11.9676 407.241 12.9162 407.855 13.4727L409.87 11.2504ZM410.527 16.1453C411.084 16.759 412.032 16.8053 412.646 16.2488C413.26 15.6922 413.306 14.7436 412.75 14.13L410.527 16.1453ZM415.335 17.2765C414.841 16.6115 413.901 16.4729 413.236 16.9669C412.571 17.4609 412.433 18.4005 412.927 19.0655L415.335 17.2765ZM415.029 22.2056C415.455 22.9158 416.377 23.1457 417.087 22.7191C417.797 22.2926 418.027 21.3711 417.6 20.6609L415.029 22.2056ZM419.524 24.2517C419.169 23.503 418.275 23.1837 417.526 23.5384C416.777 23.8931 416.458 24.7875 416.813 25.5362L419.524 24.2517ZM418.26 29.0256C418.539 29.8056 419.397 30.2116 420.177 29.9325C420.957 29.6534 421.363 28.7948 421.084 28.0148L418.26 29.0256ZM422.265 31.9139C422.065 31.1102 421.25 30.6213 420.447 30.822C419.643 31.0227 419.154 31.837 419.355 32.6407L422.265 31.9139ZM420.088 36.3469C420.209 37.1665 420.971 37.7332 421.79 37.6126C422.61 37.4921 423.177 36.7299 423.056 35.9103L420.088 36.3469ZM423.451 39.9641C423.411 39.1366 422.708 38.4982 421.88 38.5382C421.053 38.5782 420.414 39.2814 420.454 40.1089L423.451 39.9641ZM420.454 43.8911C420.414 44.7186 421.053 45.4218 421.88 45.4618C422.708 45.5018 423.411 44.8634 423.451 44.0359L420.454 43.8911ZM423.056 48.0897C423.177 47.2701 422.61 46.5079 421.79 46.3874C420.971 46.2668 420.209 46.8335 420.088 47.6531L423.056 48.0897ZM419.355 51.3593C419.154 52.163 419.643 52.9773 420.447 53.178C421.25 53.3787 422.065 52.8898 422.265 52.0861L419.355 51.3593ZM421.084 55.9852C421.363 55.2052 420.957 54.3466 420.177 54.0675C419.397 53.7884 418.539 54.1944 418.26 54.9744L421.084 55.9852ZM416.813 58.4638C416.458 59.2125 416.777 60.1069 417.526 60.4616C418.275 60.8164 419.169 60.497 419.524 59.7483L416.813 58.4638ZM417.6 63.3391C418.027 62.6289 417.797 61.7074 417.087 61.2809C416.377 60.8543 415.455 61.0842 415.029 61.7944L417.6 63.3391ZM412.927 64.9345C412.433 65.5995 412.571 66.5391 413.236 67.0331C413.901 67.5271 414.841 67.3885 415.335 66.7235L412.927 64.9345ZM412.75 69.87C413.306 69.2564 413.26 68.3078 412.646 67.7512C412.032 67.1947 411.084 67.2411 410.527 67.8547L412.75 69.87ZM407.855 70.5273C407.241 71.0838 407.195 72.0324 407.751 72.6461C408.308 73.2598 409.256 73.3061 409.87 72.7496L407.855 70.5273ZM406.723 75.3348C407.388 74.8408 407.527 73.9012 407.033 73.2362C406.539 72.5712 405.6 72.4325 404.935 72.9265L406.723 75.3348ZM401.794 75.0287C401.084 75.4553 400.854 76.3768 401.281 77.087C401.707 77.7971 402.629 78.0271 403.339 77.6005L401.794 75.0287ZM399.748 79.5237C400.497 79.169 400.816 78.2745 400.462 77.5259C400.107 76.7772 399.212 76.4579 398.464 76.8126L399.748 79.5237ZM394.974 78.2595C394.194 78.5387 393.788 79.3973 394.067 80.1772C394.347 80.9572 395.205 81.3633 395.985 81.0841L394.974 78.2595ZM392.086 82.2655C392.89 82.0647 393.379 81.2505 393.178 80.4467C392.977 79.643 392.163 79.1541 391.359 79.3548L392.086 82.2655ZM387.653 80.0881C386.834 80.2087 386.267 80.9708 386.387 81.7904C386.508 82.61 387.27 83.1767 388.09 83.0562L387.653 80.0881ZM384.036 83.4509C384.863 83.4109 385.502 82.7077 385.462 81.8802C385.422 81.0528 384.719 80.4144 383.891 80.4544L384.036 83.4509ZM380.043 80.4512C379.215 80.4098 378.511 81.0469 378.47 81.8743C378.428 82.7017 379.066 83.406 379.893 83.4474L380.043 80.4512ZM375.701 83.0248C376.52 83.1496 377.285 82.5868 377.41 81.7678C377.534 80.9488 376.972 80.1838 376.153 80.059L375.701 83.0248ZM372.324 79.2743C371.522 79.0667 370.704 79.5486 370.496 80.3506C370.288 81.1526 370.77 81.971 371.572 82.1786L372.324 79.2743ZM367.551 80.9151C368.328 81.2035 369.191 80.8078 369.48 80.0312C369.768 79.2546 369.372 78.3913 368.596 78.1028L367.551 80.9151ZM365.006 76.5564C364.263 76.1903 363.364 76.4959 362.998 77.239C362.631 77.9821 362.937 78.8813 363.68 79.2475L365.006 76.5564ZM359.999 77.1947C360.702 77.6345 361.627 77.4218 362.067 76.7198C362.507 76.0177 362.294 75.0921 361.592 74.6523L359.999 77.1947ZM358.388 72.4116C357.734 71.9031 356.792 72.021 356.283 72.675C355.775 73.329 355.892 74.2714 356.546 74.7799L358.388 72.4116ZM353.355 72.0289C353.955 72.6008 354.904 72.5786 355.476 71.9792C356.048 71.3798 356.026 70.4304 355.426 69.8585L353.355 72.0289ZM352.737 67.0197C352.198 66.3903 351.251 66.3167 350.622 66.8554C349.993 67.3941 349.919 68.3409 350.458 68.9703L352.737 67.0197ZM347.883 65.6349C348.356 66.3155 349.29 66.4843 349.971 66.0119C350.652 65.5396 350.82 64.605 350.348 63.9244L347.883 65.6349ZM345.652 63.9244C345.18 64.605 345.348 65.5396 346.029 66.0119C346.71 66.4843 347.644 66.3155 348.117 65.6349L345.652 63.9244ZM345.542 68.9703C346.081 68.3409 346.007 67.394 345.378 66.8554C344.749 66.3167 343.802 66.3903 343.263 67.0197L345.542 68.9703ZM340.574 69.8585C339.974 70.4304 339.952 71.3798 340.524 71.9792C341.096 72.5786 342.045 72.6008 342.645 72.0289L340.574 69.8585ZM339.454 74.7799C340.108 74.2714 340.225 73.329 339.717 72.675C339.208 72.021 338.266 71.9031 337.612 72.4116L339.454 74.7799ZM334.408 74.6523C333.706 75.0921 333.493 76.0177 333.933 76.7198C334.373 77.4218 335.298 77.6345 336.001 77.1947L334.408 74.6523ZM332.32 79.2475C333.063 78.8813 333.369 77.9821 333.002 77.239C332.636 76.4959 331.737 76.1903 330.994 76.5564L332.32 79.2475ZM327.404 78.1028C326.628 78.3913 326.232 79.2546 326.52 80.0312C326.809 80.8078 327.672 81.2035 328.449 80.9151L327.404 78.1028ZM324.428 82.1786C325.23 81.971 325.712 81.1526 325.504 80.3506C325.296 79.5486 324.478 79.0667 323.676 79.2743L324.428 82.1786ZM319.847 80.059C319.028 80.1838 318.466 80.9488 318.59 81.7678C318.715 82.5868 319.48 83.1496 320.299 83.0248L319.847 80.059ZM316.107 83.4474C316.934 83.406 317.572 82.7017 317.53 81.8743C317.489 81.0469 316.785 80.4098 315.957 80.4512L316.107 83.4474ZM312.043 80.4512C311.215 80.4098 310.511 81.0469 310.47 81.8743C310.428 82.7017 311.066 83.406 311.893 83.4474L312.043 80.4512ZM307.701 83.0248C308.52 83.1496 309.285 82.5868 309.41 81.7678C309.534 80.9488 308.972 80.1838 308.153 80.059L307.701 83.0248ZM304.324 79.2743C303.522 79.0667 302.704 79.5486 302.496 80.3506C302.288 81.1526 302.77 81.971 303.572 82.1786L304.324 79.2743ZM299.551 80.9151C300.328 81.2035 301.191 80.8078 301.48 80.0312C301.768 79.2546 301.372 78.3913 300.596 78.1028L299.551 80.9151ZM297.006 76.5564C296.263 76.1903 295.364 76.4959 294.998 77.239C294.631 77.9821 294.937 78.8813 295.68 79.2475L297.006 76.5564ZM291.999 77.1947C292.702 77.6345 293.627 77.4218 294.067 76.7198C294.507 76.0177 294.294 75.0921 293.592 74.6523L291.999 77.1947ZM290.388 72.4116C289.734 71.9031 288.792 72.021 288.283 72.675C287.775 73.329 287.892 74.2714 288.546 74.7799L290.388 72.4116ZM285.355 72.0289C285.955 72.6008 286.904 72.5786 287.476 71.9792C288.048 71.3798 288.026 70.4304 287.426 69.8585L285.355 72.0289ZM284.737 67.0197C284.198 66.3903 283.251 66.3167 282.622 66.8554C281.993 67.3941 281.919 68.3409 282.458 68.9703L284.737 67.0197ZM279.883 65.6349C280.356 66.3155 281.29 66.4843 281.971 66.0119C282.652 65.5396 282.82 64.605 282.348 63.9244L279.883 65.6349ZM277.652 63.9244C277.18 64.605 277.348 65.5396 278.029 66.0119C278.71 66.4843 279.644 66.3155 280.117 65.6349L277.652 63.9244ZM277.542 68.9703C278.081 68.3409 278.007 67.394 277.378 66.8554C276.749 66.3167 275.802 66.3903 275.263 67.0197L277.542 68.9703ZM272.574 69.8585C271.974 70.4304 271.952 71.3798 272.524 71.9792C273.096 72.5786 274.045 72.6008 274.645 72.0289L272.574 69.8585ZM271.454 74.7799C272.108 74.2714 272.225 73.329 271.717 72.675C271.208 72.021 270.266 71.9031 269.612 72.4116L271.454 74.7799ZM266.408 74.6523C265.706 75.0921 265.493 76.0177 265.933 76.7198C266.373 77.4218 267.298 77.6345 268.001 77.1947L266.408 74.6523ZM264.32 79.2475C265.063 78.8813 265.369 77.9821 265.002 77.239C264.636 76.4959 263.737 76.1903 262.994 76.5564L264.32 79.2475ZM259.404 78.1028C258.628 78.3913 258.232 79.2546 258.52 80.0312C258.809 80.8078 259.672 81.2035 260.449 80.9151L259.404 78.1028ZM256.428 82.1786C257.23 81.971 257.712 81.1526 257.504 80.3506C257.296 79.5486 256.478 79.0667 255.676 79.2743L256.428 82.1786ZM251.847 80.059C251.028 80.1838 250.466 80.9488 250.59 81.7678C250.715 82.5868 251.48 83.1496 252.299 83.0248L251.847 80.059ZM248.107 83.4474C248.934 83.406 249.572 82.7017 249.53 81.8743C249.489 81.0469 248.785 80.4098 247.957 80.4512L248.107 83.4474ZM244.043 80.4512C243.215 80.4098 242.511 81.0469 242.47 81.8743C242.428 82.7017 243.066 83.406 243.893 83.4474L244.043 80.4512ZM239.701 83.0248C240.52 83.1496 241.285 82.5868 241.41 81.7678C241.534 80.9488 240.972 80.1838 240.153 80.059L239.701 83.0248ZM236.324 79.2743C235.522 79.0667 234.704 79.5486 234.496 80.3506C234.288 81.1526 234.77 81.971 235.572 82.1786L236.324 79.2743ZM231.551 80.9151C232.328 81.2035 233.191 80.8078 233.48 80.0312C233.768 79.2546 233.372 78.3913 232.596 78.1028L231.551 80.9151ZM229.006 76.5564C228.263 76.1903 227.364 76.4959 226.998 77.239C226.631 77.9821 226.937 78.8813 227.68 79.2475L229.006 76.5564ZM223.999 77.1947C224.702 77.6345 225.627 77.4218 226.067 76.7198C226.507 76.0177 226.294 75.0921 225.592 74.6523L223.999 77.1947ZM222.388 72.4116C221.734 71.9031 220.792 72.021 220.283 72.675C219.775 73.3289 219.892 74.2713 220.546 74.7799L222.388 72.4116ZM217.355 72.0289C217.955 72.6008 218.904 72.5786 219.476 71.9792C220.048 71.3798 220.026 70.4303 219.426 69.8585L217.355 72.0289ZM216.737 67.0197C216.198 66.3903 215.251 66.3167 214.622 66.8554C213.993 67.394 213.919 68.3409 214.458 68.9703L216.737 67.0197ZM211.883 65.6349C212.356 66.3155 213.29 66.4843 213.971 66.0119C214.652 65.5396 214.82 64.605 214.348 63.9244L211.883 65.6349ZM209.652 63.9244C209.18 64.605 209.348 65.5396 210.029 66.0119C210.71 66.4843 211.644 66.3155 212.117 65.6349L209.652 63.9244ZM209.542 68.9703C210.081 68.3409 210.007 67.394 209.378 66.8554C208.749 66.3167 207.802 66.3903 207.263 67.0197L209.542 68.9703ZM204.574 69.8585C203.974 70.4303 203.952 71.3798 204.524 71.9792C205.096 72.5786 206.045 72.6008 206.645 72.0289L204.574 69.8585ZM203.454 74.7799C204.108 74.2713 204.225 73.3289 203.717 72.675C203.208 72.021 202.266 71.9031 201.612 72.4116L203.454 74.7799ZM198.408 74.6523C197.706 75.0921 197.493 76.0177 197.933 76.7198C198.373 77.4218 199.298 77.6345 200.001 77.1947L198.408 74.6523ZM196.32 79.2475C197.063 78.8813 197.369 77.9821 197.002 77.239C196.636 76.4959 195.737 76.1903 194.994 76.5564L196.32 79.2475ZM191.404 78.1028C190.628 78.3913 190.232 79.2546 190.52 80.0312C190.809 80.8078 191.672 81.2035 192.449 80.9151L191.404 78.1028ZM188.428 82.1786C189.23 81.971 189.712 81.1526 189.504 80.3506C189.296 79.5486 188.478 79.0667 187.676 79.2743L188.428 82.1786ZM183.847 80.059C183.028 80.1838 182.466 80.9488 182.59 81.7678C182.715 82.5868 183.48 83.1496 184.299 83.0248L183.847 80.059ZM180.107 83.4474C180.934 83.406 181.572 82.7017 181.53 81.8743C181.489 81.0469 180.785 80.4098 179.957 80.4512L180.107 83.4474ZM176.043 80.4512C175.215 80.4098 174.511 81.0469 174.47 81.8743C174.428 82.7017 175.066 83.406 175.893 83.4474L176.043 80.4512ZM171.701 83.0248C172.52 83.1496 173.285 82.5868 173.41 81.7678C173.534 80.9488 172.972 80.1838 172.153 80.059L171.701 83.0248ZM168.324 79.2743C167.522 79.0667 166.704 79.5486 166.496 80.3506C166.288 81.1526 166.77 81.971 167.572 82.1786L168.324 79.2743ZM163.551 80.9151C164.328 81.2035 165.191 80.8078 165.48 80.0312C165.768 79.2546 165.372 78.3913 164.596 78.1028L163.551 80.9151ZM161.006 76.5564C160.263 76.1903 159.364 76.4959 158.998 77.239C158.631 77.9821 158.937 78.8813 159.68 79.2475L161.006 76.5564ZM155.999 77.1947C156.702 77.6345 157.627 77.4218 158.067 76.7198C158.507 76.0177 158.294 75.0921 157.592 74.6523L155.999 77.1947ZM154.388 72.4116C153.734 71.9031 152.792 72.021 152.283 72.675C151.775 73.3289 151.892 74.2713 152.546 74.7799L154.388 72.4116ZM149.355 72.0289C149.955 72.6008 150.904 72.5786 151.476 71.9792C152.048 71.3798 152.026 70.4303 151.426 69.8585L149.355 72.0289ZM148.737 67.0197C148.198 66.3903 147.251 66.3167 146.622 66.8554C145.993 67.394 145.919 68.3409 146.458 68.9703L148.737 67.0197ZM143.883 65.6349C144.356 66.3155 145.29 66.4843 145.971 66.0119C146.652 65.5396 146.82 64.605 146.348 63.9244L143.883 65.6349ZM141.652 63.9244C141.18 64.605 141.348 65.5396 142.029 66.0119C142.71 66.4843 143.644 66.3155 144.117 65.6349L141.652 63.9244ZM141.542 68.9703C142.081 68.3409 142.007 67.394 141.378 66.8554C140.749 66.3167 139.802 66.3903 139.263 67.0197L141.542 68.9703ZM136.574 69.8585C135.974 70.4303 135.952 71.3798 136.524 71.9792C137.096 72.5786 138.045 72.6008 138.645 72.0289L136.574 69.8585ZM135.454 74.7799C136.108 74.2713 136.225 73.3289 135.717 72.675C135.208 72.021 134.266 71.9031 133.612 72.4116L135.454 74.7799ZM130.408 74.6523C129.706 75.0921 129.493 76.0177 129.933 76.7198C130.373 77.4218 131.298 77.6345 132.001 77.1947L130.408 74.6523ZM128.32 79.2475C129.063 78.8813 129.369 77.9821 129.002 77.239C128.636 76.4959 127.737 76.1903 126.994 76.5564L128.32 79.2475ZM123.404 78.1028C122.628 78.3913 122.232 79.2546 122.52 80.0312C122.809 80.8078 123.672 81.2035 124.449 80.9151L123.404 78.1028ZM120.428 82.1786C121.23 81.971 121.712 81.1526 121.504 80.3506C121.296 79.5486 120.478 79.0667 119.676 79.2743L120.428 82.1786ZM115.847 80.059C115.028 80.1838 114.466 80.9488 114.59 81.7678C114.715 82.5868 115.48 83.1496 116.299 83.0248L115.847 80.059ZM112.107 83.4474C112.934 83.406 113.572 82.7017 113.53 81.8743C113.489 81.0469 112.785 80.4098 111.957 80.4512L112.107 83.4474ZM108.043 80.4512C107.215 80.4098 106.511 81.0469 106.47 81.8743C106.428 82.7017 107.066 83.406 107.893 83.4474L108.043 80.4512ZM103.701 83.0248C104.52 83.1496 105.285 82.5868 105.41 81.7678C105.534 80.9488 104.972 80.1838 104.153 80.059L103.701 83.0248ZM100.324 79.2743C99.522 79.0667 98.7035 79.5486 98.496 80.3506C98.2884 81.1526 98.7703 81.971 99.5723 82.1786L100.324 79.2743ZM95.5512 80.9151C96.3278 81.2035 97.1912 80.8078 97.4796 80.0312C97.7681 79.2546 97.3724 78.3913 96.5958 78.1028L95.5512 80.9151ZM93.0061 76.5564C92.263 76.1903 91.3638 76.4959 90.9976 77.239C90.6314 77.9821 90.937 78.8813 91.6801 79.2475L93.0061 76.5564ZM87.9994 77.1947C88.7015 77.6345 89.6271 77.4218 90.0669 76.7198C90.5067 76.0177 90.294 75.0921 89.592 74.6523L87.9994 77.1947ZM86.388 72.4116C85.734 71.9031 84.7916 72.021 84.2831 72.675C83.7745 73.3289 83.8925 74.2713 84.5464 74.7799L86.388 72.4116ZM81.3553 72.0289C81.9547 72.6008 82.9041 72.5786 83.476 71.9792C84.0479 71.3798 84.0257 70.4304 83.4263 69.8585L81.3553 72.0289ZM80.737 67.0197C80.1983 66.3903 79.2515 66.3167 78.6221 66.8554C77.9927 67.394 77.9191 68.3409 78.4578 68.9703L80.737 67.0197ZM75.8834 65.6349C76.3558 66.3155 77.2904 66.4843 77.971 66.0119C78.6516 65.5396 78.8204 64.605 78.348 63.9244L75.8834 65.6349ZM74.7259 62.29C74.3815 62.8443 74.0234 63.3893 73.652 63.9244L76.1166 65.6349C76.5168 65.0582 76.9028 64.4709 77.2741 63.8734L74.7259 62.29ZM71.263 67.0197C70.4148 68.0108 69.5171 68.9583 68.5737 69.8585L70.6447 72.0289C71.6611 71.0591 72.6283 70.0382 73.5422 68.9703L71.263 67.0197ZM65.612 72.4116C64.5843 73.2108 63.515 73.9589 62.408 74.6523L64.0006 77.1947C65.1937 76.4473 66.3461 75.641 67.4536 74.7799L65.612 72.4116ZM58.9939 76.5564C57.8292 77.1303 56.6315 77.647 55.4042 78.1028L56.4488 80.9151C57.7724 80.4235 59.0641 79.8663 60.3199 79.2475L58.9939 76.5564ZM51.676 79.2743C50.4235 79.5985 49.1462 79.8612 47.8473 80.059L48.299 83.0248C49.6993 82.8115 51.0768 82.5282 52.4277 82.1786L51.676 79.2743ZM43.9571 80.4512C43.309 80.4836 42.6565 80.5 42 80.5V83.5C42.7065 83.5 43.409 83.4823 44.1071 83.4474L43.9571 80.4512ZM42 80.5C41.3658 80.5 40.7353 80.4847 40.1089 80.4544L39.9641 83.4509C40.6387 83.4835 41.3175 83.5 42 83.5V80.5ZM36.3469 80.0881C35.0906 79.9033 33.8542 79.6578 32.6407 79.3548L31.9139 82.2655C33.2227 82.5923 34.5559 82.8569 35.9103 83.0562L36.3469 80.0881ZM29.0256 78.2595C27.8343 77.8332 26.67 77.3498 25.5362 76.8126L24.2517 79.5237C25.4743 80.103 26.7299 80.6243 28.0148 81.0841L29.0256 78.2595ZM22.2056 75.0287C21.1233 74.3786 20.0754 73.6768 19.0655 72.9265L17.2765 75.3348C18.3648 76.1432 19.4942 76.8997 20.6609 77.6005L22.2056 75.0287ZM16.1453 70.5273C15.2115 69.6805 14.3195 68.7885 13.4727 67.8547L11.2504 69.87C12.1628 70.8761 13.1239 71.8372 14.13 72.7496L16.1453 70.5273ZM11.0735 64.9345C10.3232 63.9246 9.62137 62.8767 8.97126 61.7944L6.39951 63.3391C7.1003 64.5058 7.85677 65.6352 8.66522 66.7235L11.0735 64.9345ZM7.18743 58.4638C6.6502 57.33 6.16678 56.1657 5.74045 54.9744L2.91587 55.9852C3.37569 57.2701 3.89703 58.5257 4.47633 59.7483L7.18743 58.4638ZM4.64517 51.3593C4.34215 50.1458 4.0967 48.9094 3.9119 47.6531L0.943843 48.0897C1.14306 49.4441 1.40773 50.7773 1.73455 52.0861L4.64517 51.3593ZM3.5456 43.8911C3.51532 43.2647 3.5 42.6342 3.5 42H0.5C0.5 42.6825 0.516488 43.3613 0.5491 44.0359L3.5456 43.8911ZM3.5 42C3.5 41.3658 3.51532 40.7353 3.5456 40.1089L0.5491 39.9641C0.516488 40.6387 0.5 41.3175 0.5 42H3.5ZM3.9119 36.3469C4.0967 35.0906 4.34215 33.8542 4.64517 32.6407L1.73455 31.9139C1.40773 33.2227 1.14306 34.5559 0.943843 35.9103L3.9119 36.3469ZM5.74045 29.0256C6.16678 27.8343 6.6502 26.67 7.18743 25.5362L4.47633 24.2517C3.89703 25.4743 3.37569 26.7299 2.91587 28.0148L5.74045 29.0256ZM8.97126 22.2056C9.62137 21.1233 10.3232 20.0754 11.0735 19.0655L8.66522 17.2765C7.85677 18.3648 7.1003 19.4942 6.39951 20.6609L8.97126 22.2056ZM13.4727 16.1453C14.3195 15.2115 15.2115 14.3195 16.1453 13.4727L14.13 11.2504C13.1239 12.1628 12.1628 13.1239 11.2504 14.13L13.4727 16.1453ZM19.0655 11.0735C20.0754 10.3232 21.1233 9.62137 22.2056 8.97126L20.6609 6.39951C19.4942 7.1003 18.3648 7.85677 17.2765 8.66522L19.0655 11.0735ZM25.5362 7.18743C26.67 6.6502 27.8343 6.16678 29.0256 5.74045L28.0148 2.91587C26.7299 3.37569 25.4743 3.89703 24.2517 4.47633L25.5362 7.18743ZM32.6407 4.64517C33.8542 4.34215 35.0906 4.0967 36.3469 3.9119L35.9103 0.943843C34.5559 1.14306 33.2227 1.40773 31.9139 1.73455L32.6407 4.64517ZM40.1089 3.5456C40.7353 3.51532 41.3658 3.5 42 3.5V0.5C41.3175 0.5 40.6387 0.516488 39.9641 0.5491L40.1089 3.5456ZM42 3.5C42.6565 3.5 43.309 3.51642 43.9571 3.54885L44.107 0.552597C43.409 0.517667 42.7065 0.5 42 0.5V3.5ZM47.8473 3.94097C49.1461 4.13881 50.4235 4.40154 51.676 4.72572L52.4277 1.82142C51.0768 1.47177 49.6993 1.18847 48.299 0.975177L47.8473 3.94097ZM55.4042 5.89719C56.6315 6.35302 57.8292 6.86969 58.9939 7.44356L60.3199 4.75251C59.0641 4.13374 57.7724 3.57655 56.4488 3.08491L55.4042 5.89719ZM62.408 9.3477C63.515 10.0411 64.5843 10.7892 65.612 11.5884L67.4536 9.22013C66.3461 8.35898 65.1937 7.55266 64.0006 6.80528L62.408 9.3477ZM68.5737 14.1415C69.5171 15.0417 70.4148 15.9892 71.263 16.9803L73.5422 15.0297C72.6283 13.9618 71.6611 12.9409 70.6447 11.9711L68.5737 14.1415ZM73.652 20.0756C74.0234 20.6107 74.3815 21.1557 74.7259 21.71L77.2741 20.1266C76.9028 19.5291 76.5168 18.9418 76.1166 18.3651L73.652 20.0756ZM77.2741 21.71C77.6185 21.1557 77.9766 20.6107 78.348 20.0756L75.8834 18.3651C75.4832 18.9418 75.0972 19.5291 74.7259 20.1266L77.2741 21.71ZM80.737 16.9803C81.5852 15.9892 82.4829 15.0417 83.4263 14.1415L81.3553 11.9711C80.3389 12.9409 79.3717 13.9618 78.4578 15.0297L80.737 16.9803ZM86.388 11.5884C87.4157 10.7892 88.485 10.0411 89.592 9.3477L87.9994 6.80528C86.8063 7.55266 85.6539 8.35898 84.5464 9.22013L86.388 11.5884ZM93.0061 7.44356C94.1708 6.86969 95.3685 6.35302 96.5958 5.89719L95.5512 3.08491C94.2276 3.57655 92.9359 4.13374 91.6801 4.75251L93.0061 7.44356ZM100.324 4.72572C101.576 4.40154 102.854 4.13881 104.153 3.94097L103.701 0.975177C102.301 1.18847 100.923 1.47177 99.5723 1.82142L100.324 4.72572ZM108.043 3.54885C108.691 3.51642 109.344 3.5 110 3.5V0.5C109.294 0.5 108.591 0.517668 107.893 0.552597L108.043 3.54885ZM110 3.5C110.656 3.5 111.309 3.51642 111.957 3.54885L112.107 0.552597C111.409 0.517667 110.706 0.5 110 0.5V3.5ZM115.847 3.94097C117.146 4.13881 118.424 4.40154 119.676 4.72572L120.428 1.82142C119.077 1.47177 117.699 1.18847 116.299 0.975177L115.847 3.94097ZM123.404 5.89719C124.631 6.35303 125.829 6.8697 126.994 7.44356L128.32 4.75251C127.064 4.13374 125.772 3.57655 124.449 3.08491L123.404 5.89719ZM130.408 9.3477C131.515 10.0411 132.584 10.7892 133.612 11.5884L135.454 9.22014C134.346 8.35898 133.194 7.55266 132.001 6.80529L130.408 9.3477ZM136.574 14.1415C137.517 15.0417 138.415 15.9892 139.263 16.9803L141.542 15.0297C140.628 13.9618 139.661 12.9409 138.645 11.9711L136.574 14.1415ZM141.652 20.0756C142.023 20.6107 142.381 21.1557 142.726 21.71L145.274 20.1266C144.903 19.5291 144.517 18.9418 144.117 18.3651L141.652 20.0756ZM145.274 21.71C145.619 21.1557 145.977 20.6107 146.348 20.0756L143.883 18.3651C143.483 18.9418 143.097 19.5292 142.726 20.1266L145.274 21.71ZM148.737 16.9803C149.585 15.9892 150.483 15.0417 151.426 14.1415L149.355 11.9711C148.339 12.9409 147.372 13.9618 146.458 15.0297L148.737 16.9803ZM154.388 11.5884C155.416 10.7892 156.485 10.0411 157.592 9.3477L155.999 6.80528C154.806 7.55266 153.654 8.35898 152.546 9.22013L154.388 11.5884ZM161.006 7.44356C162.171 6.86969 163.369 6.35303 164.596 5.89719L163.551 3.08491C162.228 3.57655 160.936 4.13374 159.68 4.75251L161.006 7.44356ZM168.324 4.72572C169.576 4.40154 170.854 4.13881 172.153 3.94097L171.701 0.975177C170.301 1.18847 168.923 1.47177 167.572 1.82142L168.324 4.72572ZM176.043 3.54885C176.691 3.51642 177.344 3.5 178 3.5V0.5C177.294 0.5 176.591 0.517668 175.893 0.552597L176.043 3.54885ZM178 3.5C178.656 3.5 179.309 3.51642 179.957 3.54885L180.107 0.552597C179.409 0.517667 178.706 0.5 178 0.5V3.5ZM183.847 3.94097C185.146 4.13881 186.424 4.40154 187.676 4.72572L188.428 1.82142C187.077 1.47177 185.699 1.18847 184.299 0.975177L183.847 3.94097ZM191.404 5.89719C192.631 6.35303 193.829 6.8697 194.994 7.44356L196.32 4.75251C195.064 4.13374 193.772 3.57655 192.449 3.08491L191.404 5.89719ZM198.408 9.3477C199.515 10.0411 200.584 10.7892 201.612 11.5884L203.454 9.22014C202.346 8.35898 201.194 7.55266 200.001 6.80529L198.408 9.3477ZM204.574 14.1415C205.517 15.0417 206.415 15.9892 207.263 16.9803L209.542 15.0297C208.628 13.9618 207.661 12.9409 206.645 11.9711L204.574 14.1415ZM209.652 20.0756C210.023 20.6107 210.381 21.1557 210.726 21.71L213.274 20.1266C212.903 19.5291 212.517 18.9418 212.117 18.3651L209.652 20.0756ZM213.274 21.71C213.619 21.1557 213.977 20.6107 214.348 20.0756L211.883 18.3651C211.483 18.9418 211.097 19.5292 210.726 20.1266L213.274 21.71ZM216.737 16.9803C217.585 15.9892 218.483 15.0417 219.426 14.1415L217.355 11.9711C216.339 12.9409 215.372 13.9618 214.458 15.0297L216.737 16.9803ZM222.388 11.5884C223.416 10.7892 224.485 10.0411 225.592 9.3477L223.999 6.80528C222.806 7.55266 221.654 8.35898 220.546 9.22013L222.388 11.5884ZM229.006 7.44356C230.171 6.86969 231.369 6.35303 232.596 5.89719L231.551 3.08491C230.228 3.57655 228.936 4.13374 227.68 4.75251L229.006 7.44356ZM236.324 4.72572C237.576 4.40154 238.854 4.13881 240.153 3.94097L239.701 0.975177C238.301 1.18847 236.923 1.47177 235.572 1.82142L236.324 4.72572ZM244.043 3.54885C244.691 3.51642 245.344 3.5 246 3.5V0.5C245.294 0.5 244.591 0.517668 243.893 0.552597L244.043 3.54885ZM246 3.5C246.656 3.5 247.309 3.51642 247.957 3.54885L248.107 0.552597C247.409 0.517667 246.706 0.5 246 0.5V3.5ZM251.847 3.94097C253.146 4.13881 254.424 4.40154 255.676 4.72571L256.428 1.82141C255.077 1.47177 253.699 1.18847 252.299 0.975176L251.847 3.94097ZM259.404 5.89718C260.631 6.35302 261.829 6.86969 262.994 7.44355L264.32 4.7525C263.064 4.13373 261.772 3.57654 260.449 3.08491L259.404 5.89718ZM266.408 9.34769C267.515 10.0411 268.584 10.7892 269.612 11.5884L271.454 9.22013C270.346 8.35897 269.194 7.55265 268.001 6.80528L266.408 9.34769ZM272.574 14.1415C273.517 15.0417 274.415 15.9892 275.263 16.9803L277.542 15.0297C276.628 13.9618 275.661 12.9409 274.645 11.9711L272.574 14.1415ZM277.652 20.0756C278.023 20.6107 278.381 21.1557 278.726 21.71L281.274 20.1266C280.903 19.5291 280.517 18.9418 280.117 18.3651L277.652 20.0756ZM281.274 21.71C281.619 21.1557 281.977 20.6107 282.348 20.0756L279.883 18.3651C279.483 18.9418 279.097 19.5291 278.726 20.1266L281.274 21.71ZM284.737 16.9803C285.585 15.9892 286.483 15.0417 287.426 14.1415L285.355 11.9711C284.339 12.9409 283.372 13.9618 282.458 15.0297L284.737 16.9803ZM290.388 11.5884C291.416 10.7892 292.485 10.0411 293.592 9.34769L291.999 6.80528C290.806 7.55265 289.654 8.35897 288.546 9.22013L290.388 11.5884ZM297.006 7.44355C298.171 6.86969 299.369 6.35302 300.596 5.89718L299.551 3.08491C298.228 3.57654 296.936 4.13373 295.68 4.7525L297.006 7.44355ZM304.324 4.72571C305.576 4.40154 306.854 4.13881 308.153 3.94097L307.701 0.975176C306.301 1.18847 304.923 1.47177 303.572 1.82141L304.324 4.72571ZM312.043 3.54885C312.691 3.51642 313.344 3.5 314 3.5V0.5C313.294 0.5 312.591 0.517667 311.893 0.552597L312.043 3.54885ZM314 3.5C314.656 3.5 315.309 3.51642 315.957 3.54885L316.107 0.552597C315.409 0.517667 314.706 0.5 314 0.5V3.5ZM319.847 3.94097C321.146 4.13881 322.424 4.40154 323.676 4.72571L324.428 1.82141C323.077 1.47177 321.699 1.18847 320.299 0.975176L319.847 3.94097ZM327.404 5.89718C328.631 6.35302 329.829 6.86969 330.994 7.44355L332.32 4.7525C331.064 4.13373 329.772 3.57654 328.449 3.08491L327.404 5.89718ZM334.408 9.34769C335.515 10.0411 336.584 10.7892 337.612 11.5884L339.454 9.22013C338.346 8.35897 337.194 7.55265 336.001 6.80528L334.408 9.34769ZM340.574 14.1415C341.517 15.0417 342.415 15.9892 343.263 16.9803L345.542 15.0297C344.628 13.9618 343.661 12.9409 342.645 11.9711L340.574 14.1415ZM345.652 20.0756C346.023 20.6107 346.381 21.1557 346.726 21.71L349.274 20.1266C348.903 19.5291 348.517 18.9418 348.117 18.3651L345.652 20.0756ZM349.274 21.71C349.619 21.1557 349.977 20.6107 350.348 20.0756L347.883 18.3651C347.483 18.9418 347.097 19.5291 346.726 20.1266L349.274 21.71ZM352.737 16.9803C353.585 15.9892 354.483 15.0417 355.426 14.1415L353.355 11.9711C352.339 12.9409 351.372 13.9618 350.458 15.0297L352.737 16.9803ZM358.388 11.5884C359.416 10.7892 360.485 10.0411 361.592 9.34769L359.999 6.80528C358.806 7.55265 357.654 8.35897 356.546 9.22013L358.388 11.5884ZM365.006 7.44355C366.171 6.86969 367.369 6.35302 368.596 5.89718L367.551 3.08491C366.228 3.57654 364.936 4.13373 363.68 4.7525L365.006 7.44355ZM372.324 4.72571C373.576 4.40154 374.854 4.13881 376.153 3.94097L375.701 0.975176C374.301 1.18847 372.923 1.47177 371.572 1.82141L372.324 4.72571ZM380.043 3.54885C380.691 3.51642 381.344 3.5 382 3.5V0.5C381.294 0.5 380.591 0.517667 379.893 0.552597L380.043 3.54885ZM382 3.5C382.634 3.5 383.265 3.51532 383.891 3.5456L384.036 0.5491C383.361 0.516488 382.683 0.5 382 0.5V3.5ZM387.653 3.9119C388.909 4.0967 390.146 4.34215 391.359 4.64517L392.086 1.73455C390.777 1.40773 389.444 1.14306 388.09 0.943843L387.653 3.9119ZM394.974 5.74045C396.166 6.16678 397.33 6.6502 398.464 7.18743L399.748 4.47633C398.526 3.89703 397.27 3.37569 395.985 2.91587L394.974 5.74045ZM401.794 8.97125C402.877 9.62137 403.925 10.3232 404.935 11.0735L406.723 8.66522C405.635 7.85677 404.506 7.1003 403.339 6.39951L401.794 8.97125ZM407.855 13.4727C408.788 14.3195 409.68 15.2115 410.527 16.1453L412.75 14.13C411.837 13.1239 410.876 12.1628 409.87 11.2504L407.855 13.4727ZM412.927 19.0655C413.677 20.0754 414.379 21.1233 415.029 22.2056L417.6 20.6609C416.9 19.4942 416.143 18.3648 415.335 17.2765L412.927 19.0655ZM416.813 25.5362C417.35 26.67 417.833 27.8343 418.26 29.0256L421.084 28.0148C420.624 26.7299 420.103 25.4743 419.524 24.2517L416.813 25.5362ZM419.355 32.6407C419.658 33.8542 419.903 35.0906 420.088 36.3469L423.056 35.9103C422.857 34.5559 422.592 33.2227 422.265 31.9139L419.355 32.6407ZM420.454 40.1089C420.485 40.7353 420.5 41.3658 420.5 42H423.5C423.5 41.3175 423.484 40.6387 423.451 39.9641L420.454 40.1089ZM420.5 42C420.5 42.6342 420.485 43.2647 420.454 43.8911L423.451 44.0359C423.484 43.3613 423.5 42.6825 423.5 42H420.5ZM420.088 47.6531C419.903 48.9094 419.658 50.1458 419.355 51.3593L422.265 52.0861C422.592 50.7773 422.857 49.4441 423.056 48.0897L420.088 47.6531ZM418.26 54.9744C417.833 56.1657 417.35 57.33 416.813 58.4638L419.524 59.7483C420.103 58.5257 420.624 57.2701 421.084 55.9852L418.26 54.9744ZM415.029 61.7944C414.379 62.8767 413.677 63.9246 412.927 64.9345L415.335 66.7235C416.143 65.6352 416.9 64.5058 417.6 63.3391L415.029 61.7944ZM410.527 67.8547C409.68 68.7885 408.788 69.6805 407.855 70.5273L409.87 72.7496C410.876 71.8372 411.837 70.8761 412.75 69.87L410.527 67.8547ZM404.935 72.9265C403.925 73.6768 402.877 74.3786 401.794 75.0287L403.339 77.6005C404.506 76.8997 405.635 76.1432 406.723 75.3348L404.935 72.9265ZM398.464 76.8126C397.33 77.3498 396.166 77.8332 394.974 78.2595L395.985 81.0841C397.27 80.6243 398.526 80.103 399.748 79.5237L398.464 76.8126ZM391.359 79.3548C390.146 79.6578 388.909 79.9033 387.653 80.0881L388.09 83.0562C389.444 82.8569 390.777 82.5923 392.086 82.2655L391.359 79.3548ZM383.891 80.4544C383.265 80.4847 382.634 80.5 382 80.5V83.5C382.683 83.5 383.361 83.4835 384.036 83.4509L383.891 80.4544ZM382 80.5C381.344 80.5 380.691 80.4836 380.043 80.4512L379.893 83.4474C380.591 83.4823 381.294 83.5 382 83.5V80.5ZM376.153 80.059C374.854 79.8612 373.576 79.5985 372.324 79.2743L371.572 82.1786C372.923 82.5282 374.301 82.8115 375.701 83.0248L376.153 80.059ZM368.596 78.1028C367.369 77.647 366.171 77.1303 365.006 76.5564L363.68 79.2475C364.936 79.8663 366.228 80.4235 367.551 80.9151L368.596 78.1028ZM361.592 74.6523C360.485 73.9589 359.416 73.2108 358.388 72.4116L356.546 74.7799C357.654 75.641 358.806 76.4473 359.999 77.1947L361.592 74.6523ZM355.426 69.8585C354.483 68.9583 353.585 68.0108 352.737 67.0197L350.458 68.9703C351.372 70.0382 352.339 71.0591 353.355 72.0289L355.426 69.8585ZM350.348 63.9244C349.977 63.3893 349.619 62.8443 349.274 62.29L346.726 63.8734C347.097 64.4709 347.483 65.0582 347.883 65.6349L350.348 63.9244ZM346.726 62.29C346.381 62.8443 346.023 63.3893 345.652 63.9244L348.117 65.6349C348.517 65.0582 348.903 64.4709 349.274 63.8734L346.726 62.29ZM343.263 67.0197C342.415 68.0108 341.517 68.9583 340.574 69.8585L342.645 72.0289C343.661 71.0591 344.628 70.0382 345.542 68.9703L343.263 67.0197ZM337.612 72.4116C336.584 73.2108 335.515 73.9589 334.408 74.6523L336.001 77.1947C337.194 76.4473 338.346 75.641 339.454 74.7799L337.612 72.4116ZM330.994 76.5564C329.829 77.1303 328.631 77.647 327.404 78.1028L328.449 80.9151C329.772 80.4235 331.064 79.8663 332.32 79.2475L330.994 76.5564ZM323.676 79.2743C322.424 79.5985 321.146 79.8612 319.847 80.059L320.299 83.0248C321.699 82.8115 323.077 82.5282 324.428 82.1786L323.676 79.2743ZM315.957 80.4512C315.309 80.4836 314.656 80.5 314 80.5V83.5C314.706 83.5 315.409 83.4823 316.107 83.4474L315.957 80.4512ZM314 80.5C313.344 80.5 312.691 80.4836 312.043 80.4512L311.893 83.4474C312.591 83.4823 313.294 83.5 314 83.5V80.5ZM308.153 80.059C306.854 79.8612 305.576 79.5985 304.324 79.2743L303.572 82.1786C304.923 82.5282 306.301 82.8115 307.701 83.0248L308.153 80.059ZM300.596 78.1028C299.369 77.647 298.171 77.1303 297.006 76.5564L295.68 79.2475C296.936 79.8663 298.228 80.4235 299.551 80.9151L300.596 78.1028ZM293.592 74.6523C292.485 73.9589 291.416 73.2108 290.388 72.4116L288.546 74.7799C289.654 75.641 290.806 76.4473 291.999 77.1947L293.592 74.6523ZM287.426 69.8585C286.483 68.9583 285.585 68.0108 284.737 67.0197L282.458 68.9703C283.372 70.0382 284.339 71.0591 285.355 72.0289L287.426 69.8585ZM282.348 63.9244C281.977 63.3893 281.619 62.8443 281.274 62.29L278.726 63.8734C279.097 64.4709 279.483 65.0582 279.883 65.6349L282.348 63.9244ZM278.726 62.29C278.381 62.8443 278.023 63.3893 277.652 63.9244L280.117 65.6349C280.517 65.0582 280.903 64.4709 281.274 63.8734L278.726 62.29ZM275.263 67.0197C274.415 68.0108 273.517 68.9583 272.574 69.8585L274.645 72.0289C275.661 71.0591 276.628 70.0382 277.542 68.9703L275.263 67.0197ZM269.612 72.4116C268.584 73.2108 267.515 73.9589 266.408 74.6523L268.001 77.1947C269.194 76.4473 270.346 75.641 271.454 74.7799L269.612 72.4116ZM262.994 76.5564C261.829 77.1303 260.631 77.647 259.404 78.1028L260.449 80.9151C261.772 80.4235 263.064 79.8663 264.32 79.2475L262.994 76.5564ZM255.676 79.2743C254.424 79.5985 253.146 79.8612 251.847 80.059L252.299 83.0248C253.699 82.8115 255.077 82.5282 256.428 82.1786L255.676 79.2743ZM247.957 80.4512C247.309 80.4836 246.656 80.5 246 80.5V83.5C246.706 83.5 247.409 83.4823 248.107 83.4474L247.957 80.4512ZM246 80.5C245.344 80.5 244.691 80.4836 244.043 80.4512L243.893 83.4474C244.591 83.4823 245.294 83.5 246 83.5V80.5ZM240.153 80.059C238.854 79.8612 237.576 79.5985 236.324 79.2743L235.572 82.1786C236.923 82.5282 238.301 82.8115 239.701 83.0248L240.153 80.059ZM232.596 78.1028C231.369 77.647 230.171 77.1303 229.006 76.5564L227.68 79.2475C228.936 79.8663 230.228 80.4234 231.551 80.9151L232.596 78.1028ZM225.592 74.6523C224.485 73.9589 223.416 73.2107 222.388 72.4116L220.546 74.7799C221.654 75.641 222.806 76.4473 223.999 77.1947L225.592 74.6523ZM219.426 69.8585C218.483 68.9583 217.585 68.0108 216.737 67.0197L214.458 68.9703C215.372 70.0382 216.339 71.0591 217.355 72.0289L219.426 69.8585ZM214.348 63.9244C213.977 63.3893 213.619 62.8443 213.274 62.29L210.726 63.8734C211.097 64.4708 211.483 65.0582 211.883 65.6349L214.348 63.9244ZM210.726 62.29C210.381 62.8443 210.023 63.3893 209.652 63.9244L212.117 65.6349C212.517 65.0582 212.903 64.4708 213.274 63.8734L210.726 62.29ZM207.263 67.0197C206.415 68.0108 205.517 68.9583 204.574 69.8585L206.645 72.0289C207.661 71.0591 208.628 70.0382 209.542 68.9703L207.263 67.0197ZM201.612 72.4116C200.584 73.2107 199.515 73.9589 198.408 74.6523L200.001 77.1947C201.194 76.4473 202.346 75.641 203.454 74.7799L201.612 72.4116ZM194.994 76.5564C193.829 77.1303 192.631 77.647 191.404 78.1028L192.449 80.9151C193.772 80.4234 195.064 79.8663 196.32 79.2475L194.994 76.5564ZM187.676 79.2743C186.424 79.5985 185.146 79.8612 183.847 80.059L184.299 83.0248C185.699 82.8115 187.077 82.5282 188.428 82.1786L187.676 79.2743ZM179.957 80.4512C179.309 80.4836 178.656 80.5 178 80.5V83.5C178.706 83.5 179.409 83.4823 180.107 83.4474L179.957 80.4512ZM178 80.5C177.344 80.5 176.691 80.4836 176.043 80.4512L175.893 83.4474C176.591 83.4823 177.294 83.5 178 83.5V80.5ZM172.153 80.059C170.854 79.8612 169.576 79.5985 168.324 79.2743L167.572 82.1786C168.923 82.5282 170.301 82.8115 171.701 83.0248L172.153 80.059ZM164.596 78.1028C163.369 77.647 162.171 77.1303 161.006 76.5564L159.68 79.2475C160.936 79.8663 162.228 80.4234 163.551 80.9151L164.596 78.1028ZM157.592 74.6523C156.485 73.9589 155.416 73.2107 154.388 72.4116L152.546 74.7799C153.654 75.641 154.806 76.4473 155.999 77.1947L157.592 74.6523ZM151.426 69.8585C150.483 68.9583 149.585 68.0108 148.737 67.0197L146.458 68.9703C147.372 70.0382 148.339 71.0591 149.355 72.0289L151.426 69.8585ZM146.348 63.9244C145.977 63.3893 145.619 62.8443 145.274 62.29L142.726 63.8734C143.097 64.4708 143.483 65.0582 143.883 65.6349L146.348 63.9244ZM142.726 62.29C142.381 62.8443 142.023 63.3893 141.652 63.9244L144.117 65.6349C144.517 65.0582 144.903 64.4708 145.274 63.8734L142.726 62.29ZM139.263 67.0197C138.415 68.0108 137.517 68.9583 136.574 69.8585L138.645 72.0289C139.661 71.0591 140.628 70.0382 141.542 68.9703L139.263 67.0197ZM133.612 72.4116C132.584 73.2107 131.515 73.9589 130.408 74.6523L132.001 77.1947C133.194 76.4473 134.346 75.641 135.454 74.7799L133.612 72.4116ZM126.994 76.5564C125.829 77.1303 124.631 77.647 123.404 78.1028L124.449 80.9151C125.772 80.4234 127.064 79.8663 128.32 79.2475L126.994 76.5564ZM119.676 79.2743C118.424 79.5985 117.146 79.8612 115.847 80.059L116.299 83.0248C117.699 82.8115 119.077 82.5282 120.428 82.1786L119.676 79.2743ZM111.957 80.4512C111.309 80.4836 110.656 80.5 110 80.5V83.5C110.706 83.5 111.409 83.4823 112.107 83.4474L111.957 80.4512ZM110 80.5C109.344 80.5 108.691 80.4836 108.043 80.4512L107.893 83.4474C108.591 83.4823 109.294 83.5 110 83.5V80.5ZM104.153 80.059C102.854 79.8612 101.576 79.5985 100.324 79.2743L99.5723 82.1786C100.923 82.5282 102.301 82.8115 103.701 83.0248L104.153 80.059ZM96.5958 78.1028C95.3685 77.647 94.1708 77.1303 93.0061 76.5564L91.6801 79.2475C92.9359 79.8663 94.2276 80.4235 95.5512 80.9151L96.5958 78.1028ZM89.592 74.6523C88.485 73.9589 87.4157 73.2108 86.388 72.4116L84.5464 74.7799C85.6539 75.641 86.8063 76.4473 87.9994 77.1947L89.592 74.6523ZM83.4263 69.8585C82.4829 68.9583 81.5852 68.0108 80.737 67.0197L78.4578 68.9703C79.3717 70.0382 80.3389 71.0591 81.3553 72.0289L83.4263 69.8585ZM78.348 63.9244C77.9766 63.3893 77.6185 62.8443 77.2741 62.29L74.7259 63.8734C75.0972 64.4709 75.4832 65.0582 75.8834 65.6349L78.348 63.9244Z" fill="#F6F6F6"/>
</svg>
