<svg width="45" height="45" viewBox="0 0 45 45" fill="none" xmlns="http://www.w3.org/2000/svg">
<rect width="45" height="45" rx="22.5" fill="#1A1A1A"/>
<path d="M12.4907 21C11.6623 21 10.9907 21.6716 10.9907 22.5C10.9907 23.3284 11.6623 24 12.4907 24L12.4907 21ZM33.5702 23.5607C34.156 22.9749 34.156 22.0251 33.5702 21.4393L24.0242 11.8934C23.4385 11.3076 22.4887 11.3076 21.9029 11.8934C21.3171 12.4792 21.3171 13.4289 21.9029 14.0147L30.3882 22.5L21.9029 30.9853C21.3171 31.5711 21.3171 32.5208 21.9029 33.1066C22.4887 33.6924 23.4385 33.6924 24.0242 33.1066L33.5702 23.5607ZM12.4907 24L32.5095 24L32.5095 21L12.4907 21L12.4907 24Z" fill="#F6F6F6"/>
</svg>
