<svg width="139" height="124" viewBox="0 0 139 124" fill="none" xmlns="http://www.w3.org/2000/svg">
<rect x="88" y="71.5042" width="51" height="51" rx="25.5" fill="#292929"/>
<path d="M108.717 88.1546C108.408 87.6973 107.786 87.5775 107.328 87.8871C106.871 88.1967 106.751 88.8184 107.061 89.2758L108.717 88.1546ZM118.922 106.275C119.464 106.379 119.988 106.025 120.093 105.482L121.795 96.6447C121.9 96.1024 121.545 95.5781 121.003 95.4736C120.46 95.3691 119.936 95.724 119.832 96.2664L118.318 104.122L110.463 102.608C109.92 102.504 109.396 102.859 109.291 103.401C109.187 103.943 109.542 104.468 110.084 104.572L118.922 106.275ZM107.061 89.2758L118.283 105.854L119.939 104.732L108.717 88.1546L107.061 89.2758Z" fill="#00E874"/>
<g clip-path="url(#clip0_727_1526)">
<path d="M46.2192 44.0743L35.7182 36.565L36.545 35.4135L41.0742 38.6477L42.6737 36.4098L39.3061 34.0015L43.553 28.0524L44.973 29.0652L43.6317 30.9476L48.957 34.7504L50.2983 32.868L51.7074 33.8718L47.4604 39.8209L44.0927 37.4126L42.4932 39.6505L47.066 42.9208L46.2391 44.0724L46.2192 44.0743ZM46.8492 37.6784L48.1382 35.8812L42.8129 32.0783L41.5239 33.8755L46.8492 37.6784Z" fill="#282828"/>
<path d="M54.0314 35.9654L59.0763 39.8848L55.9009 43.9666L52.2525 41.1325L50.4324 43.4812C51.3519 44.1891 52.1707 44.7858 52.8988 45.2704C53.6168 45.7559 54.3829 46.2169 55.185 46.6344L54.4244 47.8501C53.537 47.3803 52.6858 46.867 51.8707 46.3101C51.0556 45.7533 50.1289 45.0762 49.0787 44.26L48.1909 43.5693L51.7599 38.9688L55.4201 41.8219L56.8737 39.9592L53.171 37.0799L54.0314 35.9654ZM55.0767 53.1324L53.7128 52.0742L58.3228 46.1415L56.4066 44.6527L57.2761 43.5273L59.1923 45.0161L62.3858 40.9125L63.7497 41.9707L55.0676 53.1433L55.0767 53.1324Z" fill="#282828"/>
<path d="M63.94 51.3535C65.4368 51.0334 66.7652 50.3072 67.9262 49.1848L64.1884 46.0376L65.1114 44.9474L70.2005 49.2342C67.2059 52.777 63.3897 53.9657 58.7735 52.8185L58.8913 51.1705C60.7609 51.6192 62.4441 51.6835 63.94 51.3535ZM70.4504 54.7247L72.0521 56.0721L71.1202 57.1732L69.5184 55.8258L64.9236 61.275L63.594 60.1534L72.6752 49.3855L74.0049 50.5072L70.4504 54.7247Z" fill="#282828"/>
<path d="M73.067 60.7179C74.1526 60.7274 75.1599 60.5432 76.0807 60.1864C77.0007 59.8195 77.8642 59.2772 78.6792 58.5385L74.9908 55.1658L75.9203 54.1452L80.9149 58.7121C79.9214 59.7988 78.8558 60.6512 77.7082 61.2702C76.5606 61.8892 75.2894 62.2586 73.8827 62.3594C72.4759 62.4602 70.9201 62.2535 69.236 61.7474L69.5049 60.1054C70.7968 60.4973 71.9905 60.6976 73.0761 60.707L73.067 60.7179ZM75.5079 70.8654L74.2125 69.6803L83.7282 59.2637L85.0235 60.4488L75.5079 70.8654Z" fill="#282828"/>
</g>
<path fill-rule="evenodd" clip-rule="evenodd" d="M4.93779 13.7171C11.9999 1.53248 27.6025 -2.62009 39.7871 4.44206C46.366 8.25514 52.8152 12.2658 59.1268 16.4657C85.9746 34.3314 110.336 55.626 131.588 79.724C140.904 90.2864 139.893 106.4 129.33 115.716C118.768 125.031 102.654 124.02 93.3386 113.458C75.0127 92.6781 54.0091 74.3199 30.8731 58.9243C25.4349 55.3055 19.8791 51.8505 14.2128 48.5664C2.0282 41.5042 -2.12436 25.9017 4.93779 13.7171Z" stroke="#292929" stroke-width="2" stroke-linecap="round"/>
<defs>
<clipPath id="clip0_727_1526">
<rect width="46.88" height="45.59" fill="white" transform="translate(35 28.8484) rotate(-5.31702)"/>
</clipPath>
</defs>
</svg>
