<svg width="140" height="125" viewBox="0 0 140 125" fill="none" xmlns="http://www.w3.org/2000/svg">
<path fill-rule="evenodd" clip-rule="evenodd" d="M5.44206 14.7171C12.5042 2.53248 28.1068 -1.62009 40.2914 5.44206C46.8702 9.25514 53.3195 13.2658 59.631 17.4657C86.4789 35.3314 110.84 56.626 132.093 80.724C141.408 91.2864 140.397 107.4 129.835 116.716C119.272 126.031 103.158 125.02 93.8429 114.458C75.517 93.6781 54.5134 75.3199 31.3774 59.9243C25.9391 56.3055 20.3833 52.8505 14.7171 49.5664C2.53248 42.5042 -1.62009 26.9017 5.44206 14.7171Z" fill="#00E874" stroke="#00E874" stroke-width="3" stroke-linecap="round"/>
<rect x="90" y="75" width="46" height="46" rx="23" fill="#1A1A1A"/>
<path d="M108.631 88.8703C108.167 88.1842 107.234 88.0046 106.548 88.469C105.862 88.9333 105.683 89.8659 106.147 90.552L108.631 88.8703ZM118.327 107.762C119.141 107.919 119.927 107.386 120.084 106.573L122.638 93.3165C122.795 92.503 122.262 91.7165 121.449 91.5598C120.635 91.4031 119.849 91.9355 119.692 92.7489L117.422 104.532L105.638 102.262C104.825 102.105 104.039 102.638 103.882 103.451C103.725 104.265 104.257 105.051 105.071 105.208L118.327 107.762ZM106.147 90.552L117.369 107.13L119.853 105.448L108.631 88.8703L106.147 90.552Z" fill="#00E874"/>
<g clip-path="url(#clip0_877_131)">
<path d="M46.7235 45.0743L36.2224 37.565L37.0493 36.4135L41.5785 39.6477L43.178 37.4098L39.8103 35.0015L44.0573 29.0524L45.4773 30.0652L44.1359 31.9476L49.4612 35.7504L50.8026 33.868L52.2117 34.8718L47.9647 40.8209L44.597 38.4126L42.9975 40.6505L47.5702 43.9208L46.7434 45.0724L46.7235 45.0743ZM47.3535 38.6784L48.6425 36.8812L43.3172 33.0783L42.0282 34.8755L47.3535 38.6784Z" fill="#1A1A1A"/>
<path d="M54.5357 36.9655L59.5806 40.8848L56.4052 44.9666L52.7568 42.1325L50.9367 44.4813C51.8562 45.1891 52.675 45.7858 53.4031 46.2704C54.1211 46.756 54.8872 47.217 55.6893 47.6345L54.9287 48.8502C54.0413 48.3804 53.1901 47.8671 52.375 47.3102C51.5599 46.7533 50.6332 46.0763 49.583 45.2601L48.6952 44.5694L52.2642 39.9689L55.9244 42.822L57.378 40.9593L53.6753 38.08L54.5357 36.9655ZM55.581 54.1325L54.2171 53.0743L58.8271 47.1416L56.9109 45.6527L57.7804 44.5273L59.6966 46.0162L62.8901 41.9126L64.254 42.9707L55.5719 54.1433L55.581 54.1325Z" fill="#1A1A1A"/>
<path d="M64.4443 52.3535C65.941 52.0334 67.2695 51.3072 68.4304 50.1848L64.6927 47.0376L65.6157 45.9474L70.7048 50.2342C67.7102 53.777 63.894 54.9657 59.2778 53.8185L59.3956 52.1705C61.2652 52.6192 62.9484 52.6835 64.4443 52.3535ZM70.9547 55.7247L72.5564 57.0721L71.6244 58.1732L70.0227 56.8258L65.4279 62.275L64.0982 61.1534L73.1795 50.3855L74.5091 51.5072L70.9547 55.7247Z" fill="#1A1A1A"/>
<path d="M73.5713 61.718C74.6569 61.7274 75.6641 61.5433 76.585 61.1864C77.505 60.8196 78.3684 60.2773 79.1835 59.5385L75.4951 56.1658L76.4245 55.1453L81.4192 59.7121C80.4256 60.7989 79.36 61.6513 78.2125 62.2703C77.0649 62.8893 75.7936 63.2587 74.3869 63.3595C72.9802 63.4603 71.4244 63.2535 69.7402 62.7474L70.0092 61.1054C71.3011 61.4974 72.4948 61.6977 73.5803 61.7071L73.5713 61.718ZM76.0121 71.8655L74.7168 70.6804L84.2324 60.2638L85.5278 61.4489L76.0121 71.8655Z" fill="#1A1A1A"/>
</g>
<defs>
<clipPath id="clip0_877_131">
<rect width="46.88" height="45.59" fill="white" transform="translate(35.5043 29.8484) rotate(-5.31702)"/>
</clipPath>
</defs>
</svg>
