<svg width="422" height="86" viewBox="0 0 422 86" fill="none" xmlns="http://www.w3.org/2000/svg">
<circle cx="41" cy="43" r="40" fill="#00E874"/>
<path d="M22.9609 69V18.2695H40.8555C45.8945 18.2695 50.1953 19.2656 53.7578 21.2578C57.3438 23.2266 60.0859 26.0859 61.9844 29.8359C63.9062 33.5859 64.8672 38.1328 64.8672 43.4766V43.5469C64.8672 48.8906 63.918 53.4727 62.0195 57.293C60.1211 61.0898 57.3789 63.9961 53.793 66.0117C50.2305 68.0039 45.918 69 40.8555 69H22.9609ZM30.8359 62.1797H40.1172C43.7031 62.1797 46.7383 61.4648 49.2227 60.0352C51.707 58.6055 53.5938 56.5078 54.8828 53.7422C56.1719 50.9766 56.8164 47.6016 56.8164 43.6172V43.5469C56.8164 39.5859 56.1602 36.2344 54.8477 33.4922C53.5586 30.7266 51.6719 28.6406 49.1875 27.2344C46.7266 25.8047 43.7031 25.0898 40.1172 25.0898H30.8359V62.1797Z" fill="white"/>
<circle cx="109" cy="43" r="40" fill="#00E874"/>
<path d="M93.9961 69V18.2695H126.199V25.0898H101.871V39.8555H124.898V46.4648H101.871V62.1797H126.199V69H93.9961Z" fill="white"/>
<circle cx="177" cy="43" r="40" fill="#00E874"/>
<path d="M177.105 69.8438C173.309 69.8438 169.98 69.2695 167.121 68.1211C164.285 66.9727 162.035 65.332 160.371 63.1992C158.707 61.043 157.77 58.4766 157.559 55.5L157.523 54.9727H165.223L165.293 55.4297C165.527 56.9766 166.172 58.3242 167.227 59.4727C168.305 60.5977 169.711 61.4648 171.445 62.0742C173.18 62.6836 175.172 62.9883 177.422 62.9883C179.695 62.9883 181.652 62.6719 183.293 62.0391C184.934 61.4062 186.199 60.5039 187.09 59.332C188.004 58.1602 188.461 56.7891 188.461 55.2188V55.1836C188.461 53.1445 187.723 51.5273 186.246 50.332C184.793 49.1133 182.379 48.1406 179.004 47.4141L173.484 46.2539C168.516 45.1992 164.812 43.5117 162.375 41.1914C159.938 38.8477 158.719 35.8008 158.719 32.0508V32.0156C158.742 29.1328 159.539 26.6016 161.109 24.4219C162.68 22.2187 164.848 20.5078 167.613 19.2891C170.379 18.0469 173.555 17.4258 177.141 17.4258C180.656 17.4258 183.762 18.0234 186.457 19.2188C189.152 20.4141 191.285 22.0898 192.855 24.2461C194.426 26.3789 195.305 28.875 195.492 31.7344L195.527 32.2969H187.828L187.758 31.8398C187.547 30.2461 186.961 28.8867 186 27.7617C185.062 26.6367 183.832 25.7813 182.309 25.1953C180.785 24.5859 179.016 24.2812 177 24.2812C174.914 24.2812 173.098 24.5977 171.551 25.2305C170.004 25.8398 168.809 26.6953 167.965 27.7969C167.121 28.8984 166.699 30.1992 166.699 31.6992V31.7344C166.699 33.6328 167.449 35.1797 168.949 36.375C170.449 37.5703 172.781 38.5078 175.945 39.1875L181.465 40.3828C184.957 41.1094 187.805 42.0938 190.008 43.3359C192.211 44.5781 193.84 46.125 194.895 47.9766C195.949 49.8281 196.477 52.0664 196.477 54.6914V54.7266C196.477 57.8203 195.691 60.5039 194.121 62.7773C192.574 65.0273 190.348 66.7734 187.441 68.0156C184.559 69.2344 181.113 69.8438 177.105 69.8438Z" fill="white"/>
<circle cx="245" cy="43" r="40" fill="#00E874"/>
<path d="M241.062 69V18.2695H248.938V69H241.062Z" fill="white"/>
<circle cx="313" cy="43" r="40" fill="#00E874"/>
<path d="M313.809 69.8438C310.176 69.8438 306.895 69.2344 303.965 68.0156C301.059 66.7969 298.574 65.0391 296.512 62.7422C294.473 60.4453 292.902 57.668 291.801 54.4102C290.699 51.1523 290.148 47.4844 290.148 43.4062V43.3711C290.148 38.0273 291.109 33.4219 293.031 29.5547C294.953 25.6875 297.684 22.6992 301.223 20.5898C304.762 18.4805 308.934 17.4258 313.738 17.4258C317.676 17.4258 321.121 18.1289 324.074 19.5352C327.027 20.918 329.441 22.8164 331.316 25.2305C333.191 27.6445 334.48 30.3867 335.184 33.457L335.324 34.0547H327.203L327.062 33.668C326.008 30.7383 324.344 28.4648 322.07 26.8477C319.82 25.2305 317.043 24.4219 313.738 24.4219C310.527 24.4219 307.75 25.1719 305.406 26.6719C303.086 28.1719 301.305 30.3398 300.062 33.1758C298.82 35.9883 298.199 39.375 298.199 43.3359V43.3711C298.199 46.3945 298.562 49.1133 299.289 51.5273C300.016 53.918 301.059 55.957 302.418 57.6445C303.801 59.332 305.453 60.6211 307.375 61.5117C309.297 62.4023 311.465 62.8477 313.879 62.8477C316.621 62.8477 319.035 62.3086 321.121 61.2305C323.23 60.1523 324.871 58.6523 326.043 56.7305C327.238 54.7852 327.848 52.5352 327.871 49.9805V49.1367H314.582V42.7031H335.676V47.9062C335.676 51.3281 335.184 54.3984 334.199 57.1172C333.215 59.8359 331.773 62.1445 329.875 64.043C328 65.9414 325.703 67.3828 322.984 68.3672C320.289 69.3516 317.23 69.8438 313.809 69.8438Z" fill="white"/>
<circle cx="381" cy="43" r="40" fill="#00E874"/>
<path d="M360.793 69V18.2695H368.07L399.289 63.0938L390.957 55.7109H394.367V18.2695H402.207V69H394.93L363.711 24.1055L372.043 31.4531H368.633V69H360.793Z" fill="white"/>
<path d="M75 64.0817L75.8494 63.5539L75 62.187L74.1506 63.5539L75 64.0817ZM143 64.0817L143.849 63.5539L143 62.1869L142.151 63.5539L143 64.0817ZM211 64.0817L211.849 63.5539L211 62.1869L210.151 63.5539L211 64.0817ZM279 64.0817L279.849 63.5539L279 62.187L278.151 63.5539L279 64.0817ZM347 64.0817L347.849 63.5539L347 62.187L346.151 63.5539L347 64.0817ZM347 21.9183L346.151 22.4461L347 23.813L347.849 22.4461L347 21.9183ZM279 21.9183L278.151 22.4461L279 23.813L279.849 22.4461L279 21.9183ZM211 21.9183L210.151 22.4461L211 23.813L211.849 22.4461L211 21.9183ZM143 21.9183L142.151 22.4461L143 23.813L143.849 22.4461L143 21.9183ZM75 21.9183L74.1506 22.4461L75 23.813L75.8494 22.4461L75 21.9183ZM73.0627 65.2095C72.7479 65.6632 72.8604 66.2863 73.3141 66.6012C73.7678 66.9161 74.3909 66.8035 74.7058 66.3498L73.0627 65.2095ZM72.1624 69.6452C72.5215 69.2256 72.4724 68.5944 72.0528 68.2353C71.6332 67.8762 71.002 67.9252 70.6429 68.3448L72.1624 69.6452ZM67.9189 71.2202C67.5193 71.6015 67.5045 72.2345 67.8857 72.634C68.267 73.0336 68.9 73.0484 69.2995 72.6672L67.9189 71.2202ZM66.1466 75.3852C66.5826 75.0461 66.6612 74.4179 66.3222 73.9819C65.9832 73.5459 65.3549 73.4673 64.919 73.8063L66.1466 75.3852ZM61.6735 76.076C61.2054 76.3692 61.0637 76.9863 61.3568 77.4544C61.65 77.9224 62.2671 78.0642 62.7351 77.771L61.6735 76.076ZM59.0989 79.799C59.5943 79.5549 59.798 78.9554 59.5539 78.46C59.3098 77.9646 58.7103 77.7608 58.2149 78.0049L59.0989 79.799ZM54.5783 79.5715C54.0606 79.7638 53.7968 80.3394 53.9891 80.8571C54.1814 81.3749 54.757 81.6387 55.2747 81.4464L54.5783 79.5715ZM51.3025 82.6945C51.8371 82.5561 52.1584 82.0105 52.02 81.4759C51.8816 80.9412 51.336 80.62 50.8013 80.7583L51.3025 82.6945ZM46.9226 81.5533C46.3766 81.6365 46.0014 82.1465 46.0845 82.6925C46.1677 83.2385 46.6777 83.6137 47.2237 83.5305L46.9226 81.5533ZM43.0821 83.948C43.6337 83.9204 44.0584 83.4509 44.0308 82.8993C44.0032 82.3477 43.5337 81.9229 42.9821 81.9505L43.0821 83.948ZM39.0848 81.9538C38.5331 81.9272 38.0643 82.3527 38.0376 82.9044C38.011 83.456 38.4366 83.9248 38.9882 83.9515L39.0848 81.9538ZM34.9831 83.5615C35.5295 83.6419 36.0376 83.2641 36.1179 82.7177C36.1983 82.1713 35.8205 81.6631 35.2741 81.5828L34.9831 83.5615ZM31.5196 80.8399C30.9838 80.7061 30.4409 81.032 30.3071 81.5679C30.1733 82.1037 30.4992 82.6465 31.035 82.7803L31.5196 80.8399ZM27.1833 81.6134C27.7033 81.7995 28.2757 81.5288 28.4617 81.0088C28.6478 80.4888 28.3771 79.9164 27.8572 79.7303L27.1833 81.6134ZM24.3221 78.2644C23.823 78.028 23.2267 78.2409 22.9902 78.74C22.7537 79.2391 22.9666 79.8353 23.4657 80.0718L24.3221 78.2644ZM19.9184 78.1719C20.3918 78.4562 21.0061 78.303 21.2905 77.8295C21.5749 77.3561 21.4216 76.7417 20.9482 76.4574L19.9184 78.1719ZM17.7673 74.3279C17.324 73.9986 16.6976 74.091 16.3682 74.5343C16.0389 74.9777 16.1313 75.6041 16.5747 75.9334L17.7673 74.3279ZM13.4658 73.3792C13.875 73.7502 14.5074 73.7193 14.8784 73.3102C15.2494 72.9011 15.2185 72.2687 14.8094 71.8977L13.4658 73.3792ZM12.1023 69.1906C11.7313 68.7815 11.0989 68.7506 10.6898 69.1216C10.2807 69.4926 10.2498 70.125 10.6208 70.5342L12.1023 69.1906ZM8.06659 67.4253C8.39593 67.8687 9.02231 67.9611 9.46566 67.6317C9.909 67.3024 10.0014 66.676 9.67209 66.2327L8.06659 67.4253ZM7.54263 63.0518C7.25826 62.5784 6.64392 62.4251 6.17048 62.7095C5.69703 62.9939 5.54376 63.6082 5.82814 64.0816L7.54263 63.0518ZM3.92818 60.5343C4.16465 61.0334 4.76095 61.2463 5.26005 61.0098C5.75915 60.7733 5.97205 60.177 5.73558 59.6779L3.92818 60.5343ZM4.26969 56.1428C4.0836 55.6229 3.51122 55.3522 2.99122 55.5383C2.47123 55.7243 2.20055 56.2967 2.38663 56.8167L4.26969 56.1428ZM1.21965 52.965C1.35346 53.5008 1.8963 53.8267 2.43214 53.6929C2.96797 53.5591 3.29387 53.0162 3.16007 52.4804L1.21965 52.965ZM2.41723 48.7259C2.33685 48.1795 1.82875 47.8017 1.28234 47.8821C0.735938 47.9624 0.358145 48.4705 0.43852 49.0169L2.41723 48.7259ZM0.0485167 45.0118C0.0751815 45.5634 0.543991 45.989 1.09563 45.9624C1.64727 45.9357 2.07285 45.4669 2.04618 44.9152L0.0485167 45.0118ZM2.04618 41.0848C2.07285 40.5331 1.64727 40.0643 1.09563 40.0376C0.543991 40.011 0.0751813 40.4366 0.0485166 40.9882L2.04618 41.0848ZM0.43852 36.9831C0.358146 37.5295 0.735938 38.0376 1.28234 38.1179C1.82875 38.1983 2.33685 37.8205 2.41723 37.2741L0.43852 36.9831ZM3.16007 33.5196C3.29387 32.9838 2.96797 32.4409 2.43214 32.3071C1.89631 32.1733 1.35346 32.4992 1.21965 33.035L3.16007 33.5196ZM2.38663 29.1833C2.20055 29.7033 2.47123 30.2757 2.99123 30.4617C3.51122 30.6478 4.0836 30.3771 4.26969 29.8572L2.38663 29.1833ZM5.73558 26.3221C5.97205 25.823 5.75915 25.2267 5.26005 24.9902C4.76095 24.7537 4.16465 24.9666 3.92818 25.4657L5.73558 26.3221ZM5.82814 21.9184C5.54376 22.3918 5.69704 23.0061 6.17048 23.2905C6.64393 23.5749 7.25826 23.4216 7.54263 22.9482L5.82814 21.9184ZM9.67209 19.7673C10.0014 19.324 9.909 18.6976 9.46566 18.3682C9.02231 18.0389 8.39593 18.1313 8.06659 18.5747L9.67209 19.7673ZM10.6208 15.4658C10.2498 15.875 10.2807 16.5074 10.6898 16.8784C11.0989 17.2494 11.7313 17.2185 12.1023 16.8094L10.6208 15.4658ZM14.8094 14.1023C15.2185 13.7313 15.2494 13.0989 14.8784 12.6898C14.5074 12.2807 13.875 12.2498 13.4658 12.6208L14.8094 14.1023ZM16.5747 10.0666C16.1313 10.3959 16.0389 11.0223 16.3683 11.4657C16.6976 11.909 17.324 12.0014 17.7673 11.6721L16.5747 10.0666ZM20.9482 9.54263C21.4216 9.25826 21.5749 8.64392 21.2905 8.17048C21.0061 7.69703 20.3918 7.54376 19.9184 7.82814L20.9482 9.54263ZM23.4657 5.92818C22.9666 6.16465 22.7537 6.76095 22.9902 7.26005C23.2267 7.75915 23.823 7.97205 24.3221 7.73558L23.4657 5.92818ZM27.8572 6.26969C28.3771 6.0836 28.6478 5.51122 28.4617 4.99122C28.2757 4.47123 27.7033 4.20055 27.1833 4.38663L27.8572 6.26969ZM31.0351 3.21965C30.4992 3.35346 30.1733 3.8963 30.3071 4.43214C30.4409 4.96797 30.9838 5.29387 31.5196 5.16007L31.0351 3.21965ZM35.2741 4.41723C35.8205 4.33685 36.1983 3.82875 36.1179 3.28234C36.0376 2.73594 35.5295 2.35815 34.9831 2.43852L35.2741 4.41723ZM38.9882 2.04852C38.4366 2.07518 38.011 2.54399 38.0376 3.09563C38.0643 3.64727 38.5331 4.07285 39.0848 4.04618L38.9882 2.04852ZM42.9821 4.04947C43.5337 4.07707 44.0032 3.65229 44.0308 3.1007C44.0584 2.5491 43.6337 2.07957 43.0821 2.05197L42.9821 4.04947ZM47.2237 2.46948C46.6777 2.38631 46.1677 2.7615 46.0845 3.30749C46.0014 3.85348 46.3766 4.36351 46.9226 4.44667L47.2237 2.46948ZM50.8013 5.24167C51.336 5.38005 51.8816 5.0588 52.02 4.52413C52.1584 3.98947 51.8371 3.44385 51.3025 3.30547L50.8013 5.24167ZM55.2747 4.55363C54.757 4.36133 54.1814 4.62514 53.9891 5.14286C53.7968 5.66059 54.0606 6.23618 54.5783 6.42848L55.2747 4.55363ZM58.2149 7.99505C58.7103 8.23916 59.3098 8.03544 59.5539 7.54003C59.798 7.04462 59.5943 6.44513 59.0989 6.20102L58.2149 7.99505ZM62.7351 8.22902C62.2671 7.93584 61.65 8.0776 61.3568 8.54565C61.0637 9.01369 61.2054 9.63079 61.6735 9.92396L62.7351 8.22902ZM64.919 12.1937C65.3549 12.5327 65.9832 12.4541 66.3222 12.0181C66.6612 11.5821 66.5826 10.9539 66.1466 10.6148L64.919 12.1937ZM69.2995 13.3328C68.9 12.9516 68.267 12.9664 67.8857 13.366C67.5045 13.7655 67.5193 14.3985 67.9189 14.7798L69.2995 13.3328ZM70.6429 17.6552C71.002 18.0748 71.6332 18.1238 72.0528 17.7647C72.4724 17.4056 72.5215 16.7744 72.1624 16.3548L70.6429 17.6552ZM74.7058 19.6502C74.3909 19.1965 73.7678 19.0839 73.3141 19.3988C72.8604 19.7137 72.7478 20.3368 73.0627 20.7905L74.7058 19.6502ZM76.9373 20.7905C77.2521 20.3368 77.1396 19.7137 76.6859 19.3988C76.2322 19.0839 75.6091 19.1965 75.2942 19.6502L76.9373 20.7905ZM77.8376 16.3548C77.4785 16.7744 77.5276 17.4056 77.9472 17.7647C78.3668 18.1238 78.998 18.0748 79.3571 17.6552L77.8376 16.3548ZM82.0811 14.7798C82.4807 14.3985 82.4955 13.7655 82.1143 13.366C81.733 12.9664 81.1 12.9516 80.7005 13.3328L82.0811 14.7798ZM83.8534 10.6148C83.4174 10.9539 83.3388 11.5821 83.6778 12.0181C84.0168 12.4541 84.6451 12.5327 85.081 12.1937L83.8534 10.6148ZM88.3265 9.92396C88.7946 9.63079 88.9363 9.01369 88.6432 8.54565C88.35 8.0776 87.7329 7.93584 87.2649 8.22902L88.3265 9.92396ZM90.9011 6.20102C90.4057 6.44513 90.202 7.04462 90.4461 7.54003C90.6902 8.03544 91.2897 8.23916 91.7851 7.99505L90.9011 6.20102ZM95.4217 6.42848C95.9394 6.23618 96.2032 5.66059 96.0109 5.14286C95.8186 4.62514 95.243 4.36133 94.7253 4.55363L95.4217 6.42848ZM98.6975 3.30547C98.1629 3.44385 97.8416 3.98947 97.98 4.52413C98.1184 5.0588 98.664 5.38005 99.1987 5.24167L98.6975 3.30547ZM103.077 4.44667C103.623 4.36351 103.999 3.85348 103.915 3.30749C103.832 2.7615 103.322 2.38631 102.776 2.46948L103.077 4.44667ZM106.918 2.05197C106.366 2.07957 105.942 2.5491 105.969 3.1007C105.997 3.65229 106.466 4.07707 107.018 4.04947L106.918 2.05197ZM110.982 4.04947C111.534 4.07707 112.003 3.65229 112.031 3.1007C112.058 2.5491 111.634 2.07957 111.082 2.05197L110.982 4.04947ZM115.224 2.46948C114.678 2.38631 114.168 2.7615 114.085 3.30749C114.001 3.85348 114.377 4.36351 114.923 4.44667L115.224 2.46948ZM118.801 5.24167C119.336 5.38005 119.882 5.0588 120.02 4.52413C120.158 3.98947 119.837 3.44385 119.302 3.30547L118.801 5.24167ZM123.275 4.55363C122.757 4.36133 122.181 4.62514 121.989 5.14286C121.797 5.66059 122.061 6.23618 122.578 6.42848L123.275 4.55363ZM126.215 7.99505C126.71 8.23916 127.31 8.03544 127.554 7.54003C127.798 7.04463 127.594 6.44513 127.099 6.20102L126.215 7.99505ZM130.735 8.22902C130.267 7.93585 129.65 8.07761 129.357 8.54565C129.064 9.0137 129.205 9.63079 129.673 9.92396L130.735 8.22902ZM132.919 12.1937C133.355 12.5327 133.983 12.4541 134.322 12.0181C134.661 11.5821 134.583 10.9539 134.147 10.6148L132.919 12.1937ZM137.3 13.3328C136.9 12.9516 136.267 12.9664 135.886 13.366C135.504 13.7655 135.519 14.3985 135.919 14.7798L137.3 13.3328ZM138.643 17.6552C139.002 18.0748 139.633 18.1238 140.053 17.7647C140.472 17.4056 140.521 16.7744 140.162 16.3548L138.643 17.6552ZM142.706 19.6502C142.391 19.1965 141.768 19.0839 141.314 19.3988C140.86 19.7137 140.748 20.3368 141.063 20.7905L142.706 19.6502ZM144.937 20.7905C145.252 20.3368 145.14 19.7137 144.686 19.3988C144.232 19.0839 143.609 19.1965 143.294 19.6502L144.937 20.7905ZM145.838 16.3548C145.479 16.7744 145.528 17.4056 145.947 17.7647C146.367 18.1238 146.998 18.0748 147.357 17.6552L145.838 16.3548ZM150.081 14.7798C150.481 14.3985 150.496 13.7655 150.114 13.366C149.733 12.9664 149.1 12.9516 148.7 13.3328L150.081 14.7798ZM151.853 10.6148C151.417 10.9539 151.339 11.5821 151.678 12.0181C152.017 12.4541 152.645 12.5327 153.081 12.1937L151.853 10.6148ZM156.327 9.92396C156.795 9.63079 156.936 9.0137 156.643 8.54565C156.35 8.0776 155.733 7.93584 155.265 8.22902L156.327 9.92396ZM158.901 6.20102C158.406 6.44513 158.202 7.04463 158.446 7.54003C158.69 8.03544 159.29 8.23916 159.785 7.99505L158.901 6.20102ZM163.422 6.42848C163.939 6.23618 164.203 5.66059 164.011 5.14286C163.819 4.62514 163.243 4.36133 162.725 4.55363L163.422 6.42848ZM166.698 3.30547C166.163 3.44385 165.842 3.98947 165.98 4.52413C166.118 5.0588 166.664 5.38005 167.199 5.24167L166.698 3.30547ZM171.077 4.44667C171.623 4.36351 171.999 3.85348 171.915 3.30749C171.832 2.7615 171.322 2.38631 170.776 2.46948L171.077 4.44667ZM174.918 2.05197C174.366 2.07957 173.942 2.5491 173.969 3.1007C173.997 3.65229 174.466 4.07707 175.018 4.04947L174.918 2.05197ZM178.982 4.04947C179.534 4.07707 180.003 3.65229 180.031 3.1007C180.058 2.5491 179.634 2.07957 179.082 2.05197L178.982 4.04947ZM183.224 2.46948C182.678 2.38631 182.168 2.7615 182.085 3.30749C182.001 3.85348 182.377 4.36351 182.923 4.44667L183.224 2.46948ZM186.801 5.24167C187.336 5.38005 187.882 5.0588 188.02 4.52413C188.158 3.98947 187.837 3.44385 187.302 3.30547L186.801 5.24167ZM191.275 4.55363C190.757 4.36133 190.181 4.62514 189.989 5.14286C189.797 5.66059 190.061 6.23618 190.578 6.42848L191.275 4.55363ZM194.215 7.99505C194.71 8.23916 195.31 8.03544 195.554 7.54003C195.798 7.04463 195.594 6.44513 195.099 6.20102L194.215 7.99505ZM198.735 8.22902C198.267 7.93585 197.65 8.07761 197.357 8.54565C197.064 9.0137 197.205 9.63079 197.673 9.92396L198.735 8.22902ZM200.919 12.1937C201.355 12.5327 201.983 12.4541 202.322 12.0181C202.661 11.5821 202.583 10.9539 202.147 10.6148L200.919 12.1937ZM205.3 13.3328C204.9 12.9516 204.267 12.9664 203.886 13.366C203.504 13.7655 203.519 14.3985 203.919 14.7798L205.3 13.3328ZM206.643 17.6552C207.002 18.0748 207.633 18.1238 208.053 17.7647C208.472 17.4056 208.521 16.7744 208.162 16.3548L206.643 17.6552ZM210.706 19.6502C210.391 19.1965 209.768 19.0839 209.314 19.3988C208.86 19.7137 208.748 20.3368 209.063 20.7905L210.706 19.6502ZM212.937 20.7905C213.252 20.3368 213.14 19.7137 212.686 19.3988C212.232 19.0839 211.609 19.1965 211.294 19.6502L212.937 20.7905ZM213.838 16.3548C213.479 16.7744 213.528 17.4056 213.947 17.7647C214.367 18.1238 214.998 18.0748 215.357 17.6552L213.838 16.3548ZM218.081 14.7798C218.481 14.3985 218.496 13.7655 218.114 13.366C217.733 12.9664 217.1 12.9516 216.7 13.3328L218.081 14.7798ZM219.853 10.6148C219.417 10.9539 219.339 11.5821 219.678 12.0181C220.017 12.4541 220.645 12.5327 221.081 12.1937L219.853 10.6148ZM224.327 9.92396C224.795 9.63079 224.936 9.0137 224.643 8.54565C224.35 8.0776 223.733 7.93584 223.265 8.22902L224.327 9.92396ZM226.901 6.20102C226.406 6.44513 226.202 7.04463 226.446 7.54003C226.69 8.03544 227.29 8.23916 227.785 7.99505L226.901 6.20102ZM231.422 6.42848C231.939 6.23618 232.203 5.66059 232.011 5.14286C231.819 4.62514 231.243 4.36133 230.725 4.55363L231.422 6.42848ZM234.698 3.30547C234.163 3.44385 233.842 3.98947 233.98 4.52413C234.118 5.0588 234.664 5.38005 235.199 5.24167L234.698 3.30547ZM239.077 4.44667C239.623 4.36351 239.999 3.85348 239.915 3.30749C239.832 2.7615 239.322 2.38631 238.776 2.46948L239.077 4.44667ZM242.918 2.05197C242.366 2.07957 241.942 2.5491 241.969 3.1007C241.997 3.65229 242.466 4.07707 243.018 4.04947L242.918 2.05197ZM246.982 4.04947C247.534 4.07707 248.003 3.65229 248.031 3.1007C248.058 2.5491 247.634 2.07957 247.082 2.05197L246.982 4.04947ZM251.224 2.46947C250.678 2.38631 250.168 2.7615 250.085 3.30749C250.001 3.85348 250.377 4.36351 250.923 4.44667L251.224 2.46947ZM254.801 5.24166C255.336 5.38005 255.882 5.0588 256.02 4.52413C256.158 3.98946 255.837 3.44385 255.302 3.30546L254.801 5.24166ZM259.275 4.55362C258.757 4.36132 258.181 4.62513 257.989 5.14286C257.797 5.66058 258.061 6.23617 258.578 6.42847L259.275 4.55362ZM262.215 7.99504C262.71 8.23915 263.31 8.03543 263.554 7.54003C263.798 7.04462 263.594 6.44512 263.099 6.20101L262.215 7.99504ZM266.735 8.22901C266.267 7.93584 265.65 8.0776 265.357 8.54564C265.064 9.01369 265.205 9.63078 265.673 9.92395L266.735 8.22901ZM268.919 12.1937C269.355 12.5327 269.983 12.4541 270.322 12.0181C270.661 11.5821 270.583 10.9539 270.147 10.6148L268.919 12.1937ZM273.3 13.3328C272.9 12.9515 272.267 12.9664 271.886 13.366C271.504 13.7655 271.519 14.3985 271.919 14.7798L273.3 13.3328ZM274.643 17.6552C275.002 18.0748 275.633 18.1238 276.053 17.7647C276.472 17.4056 276.521 16.7744 276.162 16.3548L274.643 17.6552ZM278.706 19.6502C278.391 19.1965 277.768 19.0839 277.314 19.3988C276.86 19.7137 276.748 20.3368 277.063 20.7905L278.706 19.6502ZM280.937 20.7905C281.252 20.3368 281.14 19.7137 280.686 19.3988C280.232 19.0839 279.609 19.1965 279.294 19.6502L280.937 20.7905ZM281.838 16.3548C281.479 16.7744 281.528 17.4056 281.947 17.7647C282.367 18.1238 282.998 18.0748 283.357 17.6552L281.838 16.3548ZM286.081 14.7798C286.481 14.3985 286.496 13.7655 286.114 13.366C285.733 12.9664 285.1 12.9515 284.7 13.3328L286.081 14.7798ZM287.853 10.6148C287.417 10.9539 287.339 11.5821 287.678 12.0181C288.017 12.4541 288.645 12.5327 289.081 12.1937L287.853 10.6148ZM292.327 9.92395C292.795 9.63078 292.936 9.01369 292.643 8.54564C292.35 8.0776 291.733 7.93584 291.265 8.22901L292.327 9.92395ZM294.901 6.20101C294.406 6.44512 294.202 7.04462 294.446 7.54003C294.69 8.03543 295.29 8.23915 295.785 7.99504L294.901 6.20101ZM299.422 6.42847C299.939 6.23617 300.203 5.66059 300.011 5.14286C299.819 4.62513 299.243 4.36132 298.725 4.55362L299.422 6.42847ZM302.698 3.30546C302.163 3.44385 301.842 3.98946 301.98 4.52413C302.118 5.0588 302.664 5.38005 303.199 5.24166L302.698 3.30546ZM307.077 4.44667C307.623 4.36351 307.999 3.85348 307.915 3.30749C307.832 2.7615 307.322 2.38631 306.776 2.46947L307.077 4.44667ZM310.918 2.05197C310.366 2.07957 309.942 2.5491 309.969 3.1007C309.997 3.65229 310.466 4.07707 311.018 4.04947L310.918 2.05197ZM314.982 4.04947C315.534 4.07707 316.003 3.65229 316.031 3.1007C316.058 2.5491 315.634 2.07957 315.082 2.05197L314.982 4.04947ZM319.224 2.46947C318.678 2.38631 318.168 2.7615 318.085 3.30749C318.001 3.85348 318.377 4.36351 318.923 4.44667L319.224 2.46947ZM322.801 5.24166C323.336 5.38005 323.882 5.0588 324.02 4.52413C324.158 3.98946 323.837 3.44385 323.302 3.30546L322.801 5.24166ZM327.275 4.55362C326.757 4.36132 326.181 4.62513 325.989 5.14286C325.797 5.66058 326.061 6.23617 326.578 6.42847L327.275 4.55362ZM330.215 7.99504C330.71 8.23915 331.31 8.03543 331.554 7.54003C331.798 7.04462 331.594 6.44512 331.099 6.20101L330.215 7.99504ZM334.735 8.22901C334.267 7.93584 333.65 8.0776 333.357 8.54564C333.064 9.01369 333.205 9.63078 333.673 9.92395L334.735 8.22901ZM336.919 12.1937C337.355 12.5327 337.983 12.4541 338.322 12.0181C338.661 11.5821 338.583 10.9539 338.147 10.6148L336.919 12.1937ZM341.3 13.3328C340.9 12.9515 340.267 12.9664 339.886 13.366C339.504 13.7655 339.519 14.3985 339.919 14.7798L341.3 13.3328ZM342.643 17.6552C343.002 18.0748 343.633 18.1238 344.053 17.7647C344.472 17.4056 344.521 16.7744 344.162 16.3548L342.643 17.6552ZM346.706 19.6502C346.391 19.1965 345.768 19.0839 345.314 19.3988C344.86 19.7137 344.748 20.3368 345.063 20.7905L346.706 19.6502ZM348.937 20.7905C349.252 20.3368 349.14 19.7137 348.686 19.3988C348.232 19.0839 347.609 19.1965 347.294 19.6502L348.937 20.7905ZM349.838 16.3548C349.479 16.7744 349.528 17.4056 349.947 17.7647C350.367 18.1238 350.998 18.0748 351.357 17.6552L349.838 16.3548ZM354.081 14.7798C354.481 14.3985 354.496 13.7655 354.114 13.366C353.733 12.9664 353.1 12.9515 352.7 13.3328L354.081 14.7798ZM355.853 10.6148C355.417 10.9539 355.339 11.5821 355.678 12.0181C356.017 12.4541 356.645 12.5327 357.081 12.1937L355.853 10.6148ZM360.327 9.92395C360.795 9.63078 360.936 9.01369 360.643 8.54564C360.35 8.0776 359.733 7.93584 359.265 8.22901L360.327 9.92395ZM362.901 6.20101C362.406 6.44512 362.202 7.04462 362.446 7.54003C362.69 8.03543 363.29 8.23915 363.785 7.99504L362.901 6.20101ZM367.422 6.42847C367.939 6.23617 368.203 5.66059 368.011 5.14286C367.819 4.62513 367.243 4.36132 366.725 4.55362L367.422 6.42847ZM370.698 3.30546C370.163 3.44385 369.842 3.98946 369.98 4.52413C370.118 5.0588 370.664 5.38005 371.199 5.24166L370.698 3.30546ZM375.077 4.44667C375.623 4.36351 375.999 3.85348 375.915 3.30749C375.832 2.7615 375.322 2.38631 374.776 2.46947L375.077 4.44667ZM378.918 2.05197C378.366 2.07957 377.942 2.5491 377.969 3.1007C377.997 3.65229 378.466 4.07707 379.018 4.04947L378.918 2.05197ZM382.915 4.04618C383.467 4.07285 383.936 3.64727 383.962 3.09563C383.989 2.54399 383.563 2.07518 383.012 2.04852L382.915 4.04618ZM387.017 2.43852C386.471 2.35815 385.962 2.73594 385.882 3.28234C385.802 3.82875 386.179 4.33685 386.726 4.41723L387.017 2.43852ZM390.48 5.16007C391.016 5.29387 391.559 4.96797 391.693 4.43214C391.827 3.8963 391.501 3.35346 390.965 3.21965L390.48 5.16007ZM394.817 4.38663C394.297 4.20055 393.724 4.47123 393.538 4.99122C393.352 5.51122 393.623 6.0836 394.143 6.26969L394.817 4.38663ZM397.678 7.73558C398.177 7.97205 398.773 7.75915 399.01 7.26005C399.246 6.76095 399.033 6.16465 398.534 5.92818L397.678 7.73558ZM402.082 7.82813C401.608 7.54376 400.994 7.69703 400.709 8.17048C400.425 8.64392 400.578 9.25826 401.052 9.54263L402.082 7.82813ZM404.233 11.6721C404.676 12.0014 405.302 11.909 405.632 11.4657C405.961 11.0223 405.869 10.3959 405.425 10.0666L404.233 11.6721ZM408.534 12.6208C408.125 12.2498 407.493 12.2807 407.122 12.6898C406.751 13.0989 406.781 13.7313 407.191 14.1023L408.534 12.6208ZM409.898 16.8094C410.269 17.2185 410.901 17.2494 411.31 16.8784C411.719 16.5074 411.75 15.875 411.379 15.4658L409.898 16.8094ZM413.933 18.5747C413.604 18.1313 412.978 18.0389 412.534 18.3683C412.091 18.6976 411.999 19.324 412.328 19.7673L413.933 18.5747ZM414.457 22.9482C414.742 23.4216 415.356 23.5749 415.83 23.2905C416.303 23.0061 416.456 22.3918 416.172 21.9184L414.457 22.9482ZM418.072 25.4657C417.835 24.9666 417.239 24.7537 416.74 24.9902C416.241 25.2267 416.028 25.823 416.264 26.3221L418.072 25.4657ZM417.73 29.8572C417.916 30.3771 418.489 30.6478 419.009 30.4617C419.529 30.2757 419.799 29.7033 419.613 29.1833L417.73 29.8572ZM420.78 33.0351C420.647 32.4992 420.104 32.1733 419.568 32.3071C419.032 32.4409 418.706 32.9838 418.84 33.5196L420.78 33.0351ZM419.583 37.2741C419.663 37.8205 420.171 38.1983 420.718 38.1179C421.264 38.0376 421.642 37.5295 421.561 36.9831L419.583 37.2741ZM421.951 40.9882C421.925 40.4366 421.456 40.011 420.904 40.0376C420.353 40.0643 419.927 40.5331 419.954 41.0848L421.951 40.9882ZM419.954 44.9152C419.927 45.4669 420.353 45.9357 420.904 45.9624C421.456 45.989 421.925 45.5634 421.951 45.0118L419.954 44.9152ZM421.561 49.0169C421.642 48.4705 421.264 47.9624 420.718 47.8821C420.171 47.8017 419.663 48.1795 419.583 48.7259L421.561 49.0169ZM418.84 52.4804C418.706 53.0162 419.032 53.5591 419.568 53.6929C420.104 53.8267 420.647 53.5008 420.78 52.965L418.84 52.4804ZM419.613 56.8167C419.799 56.2967 419.529 55.7243 419.009 55.5383C418.489 55.3522 417.916 55.6229 417.73 56.1428L419.613 56.8167ZM416.264 59.6779C416.028 60.177 416.241 60.7733 416.74 61.0098C417.239 61.2463 417.835 61.0334 418.072 60.5343L416.264 59.6779ZM416.172 64.0816C416.456 63.6082 416.303 62.9939 415.83 62.7095C415.356 62.4251 414.742 62.5784 414.457 63.0518L416.172 64.0816ZM412.328 66.2327C411.999 66.676 412.091 67.3024 412.534 67.6318C412.978 67.9611 413.604 67.8687 413.933 67.4253L412.328 66.2327ZM411.379 70.5342C411.75 70.125 411.719 69.4926 411.31 69.1216C410.901 68.7506 410.269 68.7815 409.898 69.1906L411.379 70.5342ZM407.191 71.8977C406.781 72.2687 406.751 72.9011 407.122 73.3102C407.493 73.7193 408.125 73.7502 408.534 73.3792L407.191 71.8977ZM405.425 75.9334C405.869 75.6041 405.961 74.9777 405.632 74.5343C405.302 74.091 404.676 73.9986 404.233 74.3279L405.425 75.9334ZM401.052 76.4574C400.578 76.7417 400.425 77.3561 400.709 77.8295C400.994 78.303 401.608 78.4562 402.082 78.1719L401.052 76.4574ZM398.534 80.0718C399.033 79.8354 399.246 79.2391 399.01 78.74C398.773 78.2409 398.177 78.028 397.678 78.2644L398.534 80.0718ZM394.143 79.7303C393.623 79.9164 393.352 80.4888 393.538 81.0088C393.724 81.5288 394.297 81.7995 394.817 81.6134L394.143 79.7303ZM390.965 82.7803C391.501 82.6465 391.827 82.1037 391.693 81.5679C391.559 81.032 391.016 80.7061 390.48 80.8399L390.965 82.7803ZM386.726 81.5828C386.179 81.6631 385.802 82.1713 385.882 82.7177C385.962 83.2641 386.471 83.6419 387.017 83.5615L386.726 81.5828ZM383.012 83.9515C383.563 83.9248 383.989 83.456 383.962 82.9044C383.936 82.3527 383.467 81.9272 382.915 81.9538L383.012 83.9515ZM379.018 81.9505C378.466 81.9229 377.997 82.3477 377.969 82.8993C377.942 83.4509 378.366 83.9204 378.918 83.948L379.018 81.9505ZM374.776 83.5305C375.322 83.6137 375.832 83.2385 375.915 82.6925C375.999 82.1465 375.623 81.6365 375.077 81.5533L374.776 83.5305ZM371.199 80.7583C370.664 80.62 370.118 80.9412 369.98 81.4759C369.842 82.0105 370.163 82.5562 370.698 82.6945L371.199 80.7583ZM366.725 81.4464C367.243 81.6387 367.819 81.3749 368.011 80.8571C368.203 80.3394 367.939 79.7638 367.422 79.5715L366.725 81.4464ZM363.785 78.005C363.29 77.7608 362.69 77.9646 362.446 78.46C362.202 78.9554 362.406 79.5549 362.901 79.799L363.785 78.005ZM359.265 77.771C359.733 78.0642 360.35 77.9224 360.643 77.4544C360.936 76.9863 360.795 76.3692 360.327 76.076L359.265 77.771ZM357.081 73.8063C356.645 73.4673 356.017 73.5459 355.678 73.9819C355.339 74.4179 355.417 75.0461 355.853 75.3852L357.081 73.8063ZM352.7 72.6672C353.1 73.0485 353.733 73.0336 354.114 72.634C354.496 72.2345 354.481 71.6015 354.081 71.2202L352.7 72.6672ZM351.357 68.3448C350.998 67.9252 350.367 67.8762 349.947 68.2353C349.528 68.5944 349.479 69.2256 349.838 69.6452L351.357 68.3448ZM347.294 66.3498C347.609 66.8035 348.232 66.9161 348.686 66.6012C349.14 66.2863 349.252 65.6632 348.937 65.2095L347.294 66.3498ZM345.063 65.2095C344.748 65.6632 344.86 66.2863 345.314 66.6012C345.768 66.9161 346.391 66.8035 346.706 66.3498L345.063 65.2095ZM344.162 69.6452C344.521 69.2256 344.472 68.5944 344.053 68.2353C343.633 67.8762 343.002 67.9252 342.643 68.3448L344.162 69.6452ZM339.919 71.2202C339.519 71.6015 339.504 72.2345 339.886 72.634C340.267 73.0336 340.9 73.0485 341.3 72.6672L339.919 71.2202ZM338.147 75.3852C338.583 75.0461 338.661 74.4179 338.322 73.9819C337.983 73.5459 337.355 73.4673 336.919 73.8063L338.147 75.3852ZM333.673 76.076C333.205 76.3692 333.064 76.9863 333.357 77.4544C333.65 77.9224 334.267 78.0642 334.735 77.771L333.673 76.076ZM331.099 79.799C331.594 79.5549 331.798 78.9554 331.554 78.46C331.31 77.9646 330.71 77.7608 330.215 78.005L331.099 79.799ZM326.578 79.5715C326.061 79.7638 325.797 80.3394 325.989 80.8571C326.181 81.3749 326.757 81.6387 327.275 81.4464L326.578 79.5715ZM323.302 82.6945C323.837 82.5562 324.158 82.0105 324.02 81.4759C323.882 80.9412 323.336 80.62 322.801 80.7583L323.302 82.6945ZM318.923 81.5533C318.377 81.6365 318.001 82.1465 318.085 82.6925C318.168 83.2385 318.678 83.6137 319.224 83.5305L318.923 81.5533ZM315.082 83.948C315.634 83.9204 316.058 83.4509 316.031 82.8993C316.003 82.3477 315.534 81.9229 314.982 81.9505L315.082 83.948ZM311.018 81.9505C310.466 81.9229 309.997 82.3477 309.969 82.8993C309.942 83.4509 310.366 83.9204 310.918 83.948L311.018 81.9505ZM306.776 83.5305C307.322 83.6137 307.832 83.2385 307.915 82.6925C307.999 82.1465 307.623 81.6365 307.077 81.5533L306.776 83.5305ZM303.199 80.7583C302.664 80.62 302.118 80.9412 301.98 81.4759C301.842 82.0105 302.163 82.5562 302.698 82.6945L303.199 80.7583ZM298.725 81.4464C299.243 81.6387 299.819 81.3749 300.011 80.8571C300.203 80.3394 299.939 79.7638 299.422 79.5715L298.725 81.4464ZM295.785 78.005C295.29 77.7608 294.69 77.9646 294.446 78.46C294.202 78.9554 294.406 79.5549 294.901 79.799L295.785 78.005ZM291.265 77.771C291.733 78.0642 292.35 77.9224 292.643 77.4544C292.936 76.9863 292.795 76.3692 292.327 76.076L291.265 77.771ZM289.081 73.8063C288.645 73.4673 288.017 73.5459 287.678 73.9819C287.339 74.4179 287.417 75.0461 287.853 75.3852L289.081 73.8063ZM284.7 72.6672C285.1 73.0485 285.733 73.0336 286.114 72.634C286.496 72.2345 286.481 71.6015 286.081 71.2202L284.7 72.6672ZM283.357 68.3448C282.998 67.9252 282.367 67.8762 281.947 68.2353C281.528 68.5944 281.479 69.2256 281.838 69.6452L283.357 68.3448ZM279.294 66.3498C279.609 66.8035 280.232 66.9161 280.686 66.6012C281.14 66.2863 281.252 65.6632 280.937 65.2095L279.294 66.3498ZM277.063 65.2095C276.748 65.6632 276.86 66.2863 277.314 66.6012C277.768 66.9161 278.391 66.8035 278.706 66.3498L277.063 65.2095ZM276.162 69.6452C276.521 69.2256 276.472 68.5944 276.053 68.2353C275.633 67.8762 275.002 67.9252 274.643 68.3448L276.162 69.6452ZM271.919 71.2202C271.519 71.6015 271.504 72.2345 271.886 72.634C272.267 73.0336 272.9 73.0485 273.3 72.6672L271.919 71.2202ZM270.147 75.3852C270.583 75.0461 270.661 74.4179 270.322 73.9819C269.983 73.5459 269.355 73.4673 268.919 73.8063L270.147 75.3852ZM265.673 76.076C265.205 76.3692 265.064 76.9863 265.357 77.4544C265.65 77.9224 266.267 78.0642 266.735 77.771L265.673 76.076ZM263.099 79.799C263.594 79.5549 263.798 78.9554 263.554 78.46C263.31 77.9646 262.71 77.7608 262.215 78.005L263.099 79.799ZM258.578 79.5715C258.061 79.7638 257.797 80.3394 257.989 80.8571C258.181 81.3749 258.757 81.6387 259.275 81.4464L258.578 79.5715ZM255.302 82.6945C255.837 82.5562 256.158 82.0105 256.02 81.4759C255.882 80.9412 255.336 80.62 254.801 80.7583L255.302 82.6945ZM250.923 81.5533C250.377 81.6365 250.001 82.1465 250.085 82.6925C250.168 83.2385 250.678 83.6137 251.224 83.5305L250.923 81.5533ZM247.082 83.948C247.634 83.9204 248.058 83.4509 248.031 82.8993C248.003 82.3477 247.534 81.9229 246.982 81.9505L247.082 83.948ZM243.018 81.9505C242.466 81.9229 241.997 82.3477 241.969 82.8993C241.942 83.4509 242.366 83.9204 242.918 83.948L243.018 81.9505ZM238.776 83.5305C239.322 83.6137 239.832 83.2385 239.915 82.6925C239.999 82.1465 239.623 81.6365 239.077 81.5533L238.776 83.5305ZM235.199 80.7583C234.664 80.6199 234.118 80.9412 233.98 81.4759C233.842 82.0105 234.163 82.5561 234.698 82.6945L235.199 80.7583ZM230.725 81.4464C231.243 81.6387 231.819 81.3749 232.011 80.8571C232.203 80.3394 231.939 79.7638 231.422 79.5715L230.725 81.4464ZM227.785 78.0049C227.29 77.7608 226.69 77.9646 226.446 78.46C226.202 78.9554 226.406 79.5549 226.901 79.799L227.785 78.0049ZM223.265 77.771C223.733 78.0642 224.35 77.9224 224.643 77.4543C224.936 76.9863 224.795 76.3692 224.327 76.076L223.265 77.771ZM221.081 73.8063C220.645 73.4673 220.017 73.5459 219.678 73.9819C219.339 74.4179 219.417 75.0461 219.853 75.3851L221.081 73.8063ZM216.7 72.6672C217.1 73.0484 217.733 73.0336 218.114 72.634C218.496 72.2345 218.481 71.6015 218.081 71.2202L216.7 72.6672ZM215.357 68.3448C214.998 67.9252 214.367 67.8762 213.947 68.2353C213.528 68.5944 213.479 69.2256 213.838 69.6452L215.357 68.3448ZM211.294 66.3498C211.609 66.8035 212.232 66.9161 212.686 66.6012C213.14 66.2863 213.252 65.6632 212.937 65.2095L211.294 66.3498ZM209.063 65.2095C208.748 65.6632 208.86 66.2863 209.314 66.6012C209.768 66.9161 210.391 66.8035 210.706 66.3498L209.063 65.2095ZM208.162 69.6452C208.521 69.2256 208.472 68.5944 208.053 68.2353C207.633 67.8761 207.002 67.9252 206.643 68.3448L208.162 69.6452ZM203.919 71.2202C203.519 71.6015 203.504 72.2345 203.886 72.634C204.267 73.0336 204.9 73.0484 205.3 72.6672L203.919 71.2202ZM202.147 75.3851C202.583 75.0461 202.661 74.4179 202.322 73.9819C201.983 73.5459 201.355 73.4673 200.919 73.8063L202.147 75.3851ZM197.673 76.076C197.205 76.3692 197.064 76.9863 197.357 77.4543C197.65 77.9224 198.267 78.0642 198.735 77.771L197.673 76.076ZM195.099 79.799C195.594 79.5549 195.798 78.9554 195.554 78.46C195.31 77.9646 194.71 77.7608 194.215 78.0049L195.099 79.799ZM190.578 79.5715C190.061 79.7638 189.797 80.3394 189.989 80.8571C190.181 81.3749 190.757 81.6387 191.275 81.4464L190.578 79.5715ZM187.302 82.6945C187.837 82.5561 188.158 82.0105 188.02 81.4759C187.882 80.9412 187.336 80.6199 186.801 80.7583L187.302 82.6945ZM182.923 81.5533C182.377 81.6365 182.001 82.1465 182.085 82.6925C182.168 83.2385 182.678 83.6137 183.224 83.5305L182.923 81.5533ZM179.082 83.948C179.634 83.9204 180.058 83.4509 180.031 82.8993C180.003 82.3477 179.534 81.9229 178.982 81.9505L179.082 83.948ZM175.018 81.9505C174.466 81.9229 173.997 82.3477 173.969 82.8993C173.942 83.4509 174.366 83.9204 174.918 83.948L175.018 81.9505ZM170.776 83.5305C171.322 83.6137 171.832 83.2385 171.915 82.6925C171.999 82.1465 171.623 81.6365 171.077 81.5533L170.776 83.5305ZM167.199 80.7583C166.664 80.6199 166.118 80.9412 165.98 81.4759C165.842 82.0105 166.163 82.5561 166.698 82.6945L167.199 80.7583ZM162.725 81.4464C163.243 81.6387 163.819 81.3749 164.011 80.8571C164.203 80.3394 163.939 79.7638 163.422 79.5715L162.725 81.4464ZM159.785 78.0049C159.29 77.7608 158.69 77.9646 158.446 78.46C158.202 78.9554 158.406 79.5549 158.901 79.799L159.785 78.0049ZM155.265 77.771C155.733 78.0642 156.35 77.9224 156.643 77.4543C156.936 76.9863 156.795 76.3692 156.327 76.076L155.265 77.771ZM153.081 73.8063C152.645 73.4673 152.017 73.5459 151.678 73.9819C151.339 74.4179 151.417 75.0461 151.853 75.3851L153.081 73.8063ZM148.7 72.6672C149.1 73.0484 149.733 73.0336 150.114 72.634C150.496 72.2345 150.481 71.6015 150.081 71.2202L148.7 72.6672ZM147.357 68.3448C146.998 67.9252 146.367 67.8762 145.947 68.2353C145.528 68.5944 145.479 69.2256 145.838 69.6452L147.357 68.3448ZM143.294 66.3498C143.609 66.8035 144.232 66.9161 144.686 66.6012C145.14 66.2863 145.252 65.6632 144.937 65.2095L143.294 66.3498ZM141.063 65.2095C140.748 65.6632 140.86 66.2863 141.314 66.6012C141.768 66.9161 142.391 66.8035 142.706 66.3498L141.063 65.2095ZM140.162 69.6452C140.521 69.2256 140.472 68.5944 140.053 68.2353C139.633 67.8761 139.002 67.9252 138.643 68.3448L140.162 69.6452ZM135.919 71.2202C135.519 71.6015 135.504 72.2345 135.886 72.634C136.267 73.0336 136.9 73.0484 137.3 72.6672L135.919 71.2202ZM134.147 75.3851C134.583 75.0461 134.661 74.4179 134.322 73.9819C133.983 73.5459 133.355 73.4673 132.919 73.8063L134.147 75.3851ZM129.673 76.076C129.205 76.3692 129.064 76.9863 129.357 77.4543C129.65 77.9224 130.267 78.0642 130.735 77.771L129.673 76.076ZM127.099 79.799C127.594 79.5549 127.798 78.9554 127.554 78.46C127.31 77.9646 126.71 77.7608 126.215 78.0049L127.099 79.799ZM122.578 79.5715C122.061 79.7638 121.797 80.3394 121.989 80.8571C122.181 81.3749 122.757 81.6387 123.275 81.4464L122.578 79.5715ZM119.302 82.6945C119.837 82.5561 120.158 82.0105 120.02 81.4759C119.882 80.9412 119.336 80.6199 118.801 80.7583L119.302 82.6945ZM114.923 81.5533C114.377 81.6365 114.001 82.1465 114.085 82.6925C114.168 83.2385 114.678 83.6137 115.224 83.5305L114.923 81.5533ZM111.082 83.948C111.634 83.9204 112.058 83.4509 112.031 82.8993C112.003 82.3477 111.534 81.9229 110.982 81.9505L111.082 83.948ZM107.018 81.9505C106.466 81.9229 105.997 82.3477 105.969 82.8993C105.942 83.4509 106.366 83.9204 106.918 83.948L107.018 81.9505ZM102.776 83.5305C103.322 83.6137 103.832 83.2385 103.915 82.6925C103.999 82.1465 103.623 81.6365 103.077 81.5533L102.776 83.5305ZM99.1987 80.7583C98.664 80.62 98.1184 80.9412 97.98 81.4759C97.8416 82.0105 98.1629 82.5562 98.6975 82.6945L99.1987 80.7583ZM94.7253 81.4464C95.243 81.6387 95.8186 81.3749 96.0109 80.8571C96.2032 80.3394 95.9394 79.7638 95.4217 79.5715L94.7253 81.4464ZM91.7851 78.005C91.2897 77.7608 90.6902 77.9646 90.4461 78.46C90.202 78.9554 90.4057 79.5549 90.9011 79.799L91.7851 78.005ZM87.2649 77.771C87.7329 78.0642 88.35 77.9224 88.6432 77.4544C88.9363 76.9863 88.7946 76.3692 88.3265 76.076L87.2649 77.771ZM85.081 73.8063C84.6451 73.4673 84.0168 73.5459 83.6778 73.9819C83.3388 74.4179 83.4174 75.0461 83.8534 75.3852L85.081 73.8063ZM80.7005 72.6672C81.1 73.0485 81.733 73.0336 82.1143 72.634C82.4956 72.2345 82.4807 71.6015 82.0811 71.2202L80.7005 72.6672ZM79.3571 68.3448C78.998 67.9252 78.3668 67.8762 77.9472 68.2353C77.5276 68.5944 77.4785 69.2256 77.8376 69.6452L79.3571 68.3448ZM75.2942 66.3498C75.6091 66.8035 76.2322 66.9161 76.6859 66.6012C77.1396 66.2863 77.2522 65.6632 76.9373 65.2095L75.2942 66.3498ZM74.1506 63.5539C73.8017 64.1154 73.4389 64.6674 73.0627 65.2095L74.7058 66.3498C75.1012 65.78 75.4826 65.1998 75.8494 64.6095L74.1506 63.5539ZM70.6429 68.3448C69.7837 69.3487 68.8744 70.3085 67.9189 71.2202L69.2995 72.6672C70.3038 71.709 71.2594 70.7003 72.1624 69.6452L70.6429 68.3448ZM64.919 73.8063C63.8779 74.6158 62.7948 75.3737 61.6735 76.076L62.7351 77.771C63.9139 77.0326 65.0524 76.236 66.1466 75.3852L64.919 73.8063ZM58.2149 78.0049C57.0351 78.5863 55.8216 79.1097 54.5783 79.5715L55.2747 81.4464C56.5823 80.9607 57.8583 80.4103 59.0989 79.799L58.2149 78.0049ZM50.8013 80.7583C49.5324 81.0868 48.2383 81.3529 46.9226 81.5533L47.2237 83.5305C48.6071 83.3198 49.9679 83.0399 51.3025 82.6945L50.8013 80.7583ZM42.9821 81.9505C42.3256 81.9834 41.6648 82 41 82V84C41.6982 84 42.3923 83.9825 43.0821 83.948L42.9821 81.9505ZM41 82C40.3578 82 39.7192 81.9845 39.0848 81.9538L38.9882 83.9515C39.6548 83.9837 40.3255 84 41 84V82ZM35.2741 81.5828C34.0015 81.3956 32.7489 81.1469 31.5196 80.8399L31.035 82.7803C32.3279 83.1032 33.645 83.3647 34.9831 83.5615L35.2741 81.5828ZM27.8572 79.7303C26.6502 79.2984 25.4708 78.8087 24.3221 78.2644L23.4657 80.0718C24.6736 80.6441 25.914 81.1591 27.1833 81.6134L27.8572 79.7303ZM20.9482 76.4574C19.8517 75.7988 18.7903 75.0878 17.7673 74.3279L16.5747 75.9334C17.6499 76.7322 18.7657 77.4795 19.9184 78.1719L20.9482 76.4574ZM14.8094 71.8977C13.8636 71.0399 12.9601 70.1364 12.1023 69.1906L10.6208 70.5342C11.5223 71.5282 12.4718 72.4777 13.4658 73.3792L14.8094 71.8977ZM9.67209 66.2327C8.91216 65.2097 8.20119 64.1483 7.54263 63.0518L5.82814 64.0816C6.52048 65.2343 7.26785 66.3501 8.06659 67.4253L9.67209 66.2327ZM5.73558 59.6779C5.19134 58.5292 4.7016 57.3498 4.26969 56.1428L2.38663 56.8167C2.84087 58.086 3.35589 59.3264 3.92818 60.5343L5.73558 59.6779ZM3.16007 52.4804C2.85308 51.2511 2.60443 49.9985 2.41723 48.7259L0.43852 49.0169C0.635337 50.355 0.896801 51.6721 1.21965 52.965L3.16007 52.4804ZM2.04618 44.9152C2.01552 44.2808 2 43.6422 2 43H0C0 43.6745 0.0162938 44.3452 0.0485167 45.0118L2.04618 44.9152ZM2 43C2 42.3578 2.01552 41.7192 2.04618 41.0848L0.0485166 40.9882C0.0162938 41.6548 0 42.3255 0 43H2ZM2.41723 37.2741C2.60443 36.0015 2.85308 34.7489 3.16007 33.5196L1.21965 33.035C0.896802 34.3279 0.635337 35.645 0.43852 36.9831L2.41723 37.2741ZM4.26969 29.8572C4.7016 28.6502 5.19134 27.4708 5.73558 26.3221L3.92818 25.4657C3.3559 26.6736 2.84087 27.914 2.38663 29.1833L4.26969 29.8572ZM7.54263 22.9482C8.2012 21.8517 8.91216 20.7903 9.67209 19.7673L8.06659 18.5747C7.26785 19.6499 6.52048 20.7657 5.82814 21.9184L7.54263 22.9482ZM12.1023 16.8094C12.9601 15.8636 13.8636 14.9601 14.8094 14.1023L13.4658 12.6208C12.4718 13.5223 11.5223 14.4718 10.6208 15.4658L12.1023 16.8094ZM17.7673 11.6721C18.7903 10.9122 19.8517 10.2012 20.9482 9.54263L19.9184 7.82814C18.7657 8.52048 17.6499 9.26785 16.5747 10.0666L17.7673 11.6721ZM24.3221 7.73558C25.4708 7.19134 26.6502 6.7016 27.8572 6.26969L27.1833 4.38663C25.914 4.84087 24.6736 5.35589 23.4657 5.92818L24.3221 7.73558ZM31.5196 5.16007C32.7489 4.85308 34.0015 4.60443 35.2741 4.41723L34.9831 2.43852C33.645 2.63534 32.3279 2.8968 31.0351 3.21965L31.5196 5.16007ZM39.0848 4.04618C39.7192 4.01552 40.3578 4 41 4V2C40.3255 2 39.6548 2.01629 38.9882 2.04852L39.0848 4.04618ZM41 4C41.6648 4 42.3256 4.01662 42.9821 4.04947L43.0821 2.05197C42.3923 2.01746 41.6982 2 41 2V4ZM46.9226 4.44667C48.2383 4.64709 49.5324 4.91324 50.8013 5.24167L51.3025 3.30547C49.9679 2.96007 48.6071 2.6802 47.2237 2.46948L46.9226 4.44667ZM54.5783 6.42848C55.8216 6.89028 57.0351 7.4137 58.2149 7.99505L59.0989 6.20102C57.8583 5.58973 56.5823 5.0393 55.2747 4.55363L54.5783 6.42848ZM61.6735 9.92396C62.7948 10.6263 63.8779 11.3842 64.919 12.1937L66.1466 10.6148C65.0524 9.76402 63.9139 8.9674 62.7351 8.22902L61.6735 9.92396ZM67.9189 14.7798C68.8744 15.6915 69.7837 16.6513 70.6429 17.6552L72.1624 16.3548C71.2594 15.2997 70.3038 14.291 69.2995 13.3328L67.9189 14.7798ZM73.0627 20.7905C73.4389 21.3326 73.8017 21.8846 74.1506 22.4461L75.8494 21.3905C75.4826 20.8002 75.1012 20.22 74.7058 19.6502L73.0627 20.7905ZM75.8494 22.4461C76.1983 21.8846 76.5611 21.3326 76.9373 20.7905L75.2942 19.6502C74.8988 20.22 74.5174 20.8002 74.1506 21.3905L75.8494 22.4461ZM79.3571 17.6552C80.2163 16.6513 81.1256 15.6915 82.0811 14.7798L80.7005 13.3328C79.6963 14.291 78.7406 15.2997 77.8376 16.3548L79.3571 17.6552ZM85.081 12.1937C86.1221 11.3842 87.2052 10.6263 88.3265 9.92396L87.2649 8.22902C86.0861 8.9674 84.9476 9.76402 83.8534 10.6148L85.081 12.1937ZM91.7851 7.99505C92.9649 7.4137 94.1784 6.89028 95.4217 6.42848L94.7253 4.55363C93.4177 5.0393 92.1417 5.58973 90.9011 6.20102L91.7851 7.99505ZM99.1987 5.24167C100.468 4.91324 101.762 4.64709 103.077 4.44667L102.776 2.46948C101.393 2.6802 100.032 2.96007 98.6975 3.30547L99.1987 5.24167ZM107.018 4.04947C107.674 4.01662 108.335 4 109 4V2C108.302 2 107.608 2.01746 106.918 2.05197L107.018 4.04947ZM109 4C109.665 4 110.326 4.01662 110.982 4.04947L111.082 2.05197C110.392 2.01746 109.698 2 109 2V4ZM114.923 4.44667C116.238 4.64709 117.532 4.91324 118.801 5.24167L119.302 3.30547C117.968 2.96007 116.607 2.6802 115.224 2.46948L114.923 4.44667ZM122.578 6.42848C123.822 6.89028 125.035 7.4137 126.215 7.99505L127.099 6.20102C125.858 5.58973 124.582 5.0393 123.275 4.55363L122.578 6.42848ZM129.673 9.92396C130.795 10.6263 131.878 11.3842 132.919 12.1937L134.147 10.6148C133.052 9.76402 131.914 8.9674 130.735 8.22902L129.673 9.92396ZM135.919 14.7798C136.874 15.6915 137.784 16.6513 138.643 17.6552L140.162 16.3548C139.259 15.2997 138.304 14.291 137.3 13.3328L135.919 14.7798ZM141.063 20.7905C141.439 21.3326 141.802 21.8846 142.151 22.4461L143.849 21.3905C143.483 20.8002 143.101 20.22 142.706 19.6502L141.063 20.7905ZM143.849 22.4461C144.198 21.8846 144.561 21.3326 144.937 20.7905L143.294 19.6502C142.899 20.22 142.517 20.8002 142.151 21.3905L143.849 22.4461ZM147.357 17.6552C148.216 16.6513 149.126 15.6915 150.081 14.7798L148.7 13.3328C147.696 14.291 146.741 15.2997 145.838 16.3548L147.357 17.6552ZM153.081 12.1937C154.122 11.3842 155.205 10.6263 156.327 9.92396L155.265 8.22902C154.086 8.9674 152.948 9.76402 151.853 10.6148L153.081 12.1937ZM159.785 7.99505C160.965 7.4137 162.178 6.89028 163.422 6.42848L162.725 4.55363C161.418 5.0393 160.142 5.58973 158.901 6.20102L159.785 7.99505ZM167.199 5.24167C168.468 4.91324 169.762 4.64709 171.077 4.44667L170.776 2.46948C169.393 2.6802 168.032 2.96007 166.698 3.30547L167.199 5.24167ZM175.018 4.04947C175.674 4.01662 176.335 4 177 4V2C176.302 2 175.608 2.01746 174.918 2.05197L175.018 4.04947ZM177 4C177.665 4 178.326 4.01662 178.982 4.04947L179.082 2.05197C178.392 2.01746 177.698 2 177 2V4ZM182.923 4.44667C184.238 4.64709 185.532 4.91324 186.801 5.24167L187.302 3.30547C185.968 2.96007 184.607 2.6802 183.224 2.46948L182.923 4.44667ZM190.578 6.42848C191.822 6.89028 193.035 7.4137 194.215 7.99505L195.099 6.20102C193.858 5.58973 192.582 5.0393 191.275 4.55363L190.578 6.42848ZM197.673 9.92396C198.795 10.6263 199.878 11.3842 200.919 12.1937L202.147 10.6148C201.052 9.76402 199.914 8.9674 198.735 8.22902L197.673 9.92396ZM203.919 14.7798C204.874 15.6915 205.784 16.6513 206.643 17.6552L208.162 16.3548C207.259 15.2997 206.304 14.291 205.3 13.3328L203.919 14.7798ZM209.063 20.7905C209.439 21.3326 209.802 21.8846 210.151 22.4461L211.849 21.3905C211.483 20.8002 211.101 20.22 210.706 19.6502L209.063 20.7905ZM211.849 22.4461C212.198 21.8846 212.561 21.3326 212.937 20.7905L211.294 19.6502C210.899 20.22 210.517 20.8002 210.151 21.3905L211.849 22.4461ZM215.357 17.6552C216.216 16.6513 217.126 15.6915 218.081 14.7798L216.7 13.3328C215.696 14.291 214.741 15.2997 213.838 16.3548L215.357 17.6552ZM221.081 12.1937C222.122 11.3842 223.205 10.6263 224.327 9.92396L223.265 8.22902C222.086 8.9674 220.948 9.76402 219.853 10.6148L221.081 12.1937ZM227.785 7.99505C228.965 7.4137 230.178 6.89028 231.422 6.42848L230.725 4.55363C229.418 5.0393 228.142 5.58973 226.901 6.20102L227.785 7.99505ZM235.199 5.24167C236.468 4.91324 237.762 4.64709 239.077 4.44667L238.776 2.46948C237.393 2.6802 236.032 2.96007 234.698 3.30547L235.199 5.24167ZM243.018 4.04947C243.674 4.01662 244.335 4 245 4V2C244.302 2 243.608 2.01746 242.918 2.05197L243.018 4.04947ZM245 4C245.665 4 246.326 4.01662 246.982 4.04947L247.082 2.05197C246.392 2.01746 245.698 2 245 2V4ZM250.923 4.44667C252.238 4.64709 253.532 4.91324 254.801 5.24166L255.302 3.30546C253.968 2.96006 252.607 2.68019 251.224 2.46947L250.923 4.44667ZM258.578 6.42847C259.822 6.89027 261.035 7.4137 262.215 7.99504L263.099 6.20101C261.858 5.58973 260.582 5.03929 259.275 4.55362L258.578 6.42847ZM265.673 9.92395C266.795 10.6263 267.878 11.3842 268.919 12.1937L270.147 10.6148C269.052 9.76401 267.914 8.96739 266.735 8.22901L265.673 9.92395ZM271.919 14.7798C272.874 15.6915 273.784 16.6513 274.643 17.6552L276.162 16.3548C275.259 15.2997 274.304 14.291 273.3 13.3328L271.919 14.7798ZM277.063 20.7905C277.439 21.3326 277.802 21.8846 278.151 22.4461L279.849 21.3905C279.483 20.8002 279.101 20.2199 278.706 19.6502L277.063 20.7905ZM279.849 22.4461C280.198 21.8846 280.561 21.3326 280.937 20.7905L279.294 19.6502C278.899 20.22 278.517 20.8002 278.151 21.3905L279.849 22.4461ZM283.357 17.6552C284.216 16.6513 285.126 15.6915 286.081 14.7798L284.7 13.3328C283.696 14.291 282.741 15.2997 281.838 16.3548L283.357 17.6552ZM289.081 12.1937C290.122 11.3842 291.205 10.6263 292.327 9.92395L291.265 8.22901C290.086 8.96739 288.948 9.76401 287.853 10.6148L289.081 12.1937ZM295.785 7.99504C296.965 7.4137 298.178 6.89027 299.422 6.42847L298.725 4.55362C297.418 5.03929 296.142 5.58973 294.901 6.20101L295.785 7.99504ZM303.199 5.24166C304.468 4.91324 305.762 4.64709 307.077 4.44667L306.776 2.46947C305.393 2.68019 304.032 2.96006 302.698 3.30546L303.199 5.24166ZM311.018 4.04947C311.674 4.01662 312.335 4 313 4V2C312.302 2 311.608 2.01746 310.918 2.05197L311.018 4.04947ZM313 4C313.665 4 314.326 4.01662 314.982 4.04947L315.082 2.05197C314.392 2.01746 313.698 2 313 2V4ZM318.923 4.44667C320.238 4.64709 321.532 4.91324 322.801 5.24166L323.302 3.30546C321.968 2.96006 320.607 2.68019 319.224 2.46947L318.923 4.44667ZM326.578 6.42847C327.822 6.89027 329.035 7.4137 330.215 7.99504L331.099 6.20101C329.858 5.58973 328.582 5.03929 327.275 4.55362L326.578 6.42847ZM333.673 9.92395C334.795 10.6263 335.878 11.3842 336.919 12.1937L338.147 10.6148C337.052 9.76401 335.914 8.96739 334.735 8.22901L333.673 9.92395ZM339.919 14.7798C340.874 15.6915 341.784 16.6513 342.643 17.6552L344.162 16.3548C343.259 15.2997 342.304 14.291 341.3 13.3328L339.919 14.7798ZM345.063 20.7905C345.439 21.3326 345.802 21.8846 346.151 22.4461L347.849 21.3905C347.483 20.8002 347.101 20.2199 346.706 19.6502L345.063 20.7905ZM347.849 22.4461C348.198 21.8846 348.561 21.3326 348.937 20.7905L347.294 19.6502C346.899 20.22 346.517 20.8002 346.151 21.3905L347.849 22.4461ZM351.357 17.6552C352.216 16.6513 353.126 15.6915 354.081 14.7798L352.7 13.3328C351.696 14.291 350.741 15.2997 349.838 16.3548L351.357 17.6552ZM357.081 12.1937C358.122 11.3842 359.205 10.6263 360.327 9.92395L359.265 8.22901C358.086 8.96739 356.948 9.76401 355.853 10.6148L357.081 12.1937ZM363.785 7.99504C364.965 7.4137 366.178 6.89027 367.422 6.42847L366.725 4.55362C365.418 5.03929 364.142 5.58973 362.901 6.20101L363.785 7.99504ZM371.199 5.24166C372.468 4.91324 373.762 4.64709 375.077 4.44667L374.776 2.46947C373.393 2.68019 372.032 2.96006 370.698 3.30546L371.199 5.24166ZM379.018 4.04947C379.674 4.01662 380.335 4 381 4V2C380.302 2 379.608 2.01746 378.918 2.05197L379.018 4.04947ZM381 4C381.642 4 382.281 4.01552 382.915 4.04618L383.012 2.04852C382.345 2.01629 381.674 2 381 2V4ZM386.726 4.41723C387.999 4.60443 389.251 4.85308 390.48 5.16007L390.965 3.21965C389.672 2.8968 388.355 2.63534 387.017 2.43852L386.726 4.41723ZM394.143 6.26969C395.35 6.7016 396.529 7.19134 397.678 7.73558L398.534 5.92818C397.326 5.35589 396.086 4.84087 394.817 4.38663L394.143 6.26969ZM401.052 9.54263C402.148 10.2012 403.21 10.9122 404.233 11.6721L405.425 10.0666C404.35 9.26785 403.234 8.52048 402.082 7.82813L401.052 9.54263ZM407.191 14.1023C408.136 14.9601 409.04 15.8636 409.898 16.8094L411.379 15.4658C410.478 14.4718 409.528 13.5223 408.534 12.6208L407.191 14.1023ZM412.328 19.7673C413.088 20.7903 413.799 21.8517 414.457 22.9482L416.172 21.9184C415.48 20.7657 414.732 19.6499 413.933 18.5747L412.328 19.7673ZM416.264 26.3221C416.809 27.4708 417.298 28.6502 417.73 29.8572L419.613 29.1833C419.159 27.914 418.644 26.6736 418.072 25.4657L416.264 26.3221ZM418.84 33.5196C419.147 34.7489 419.396 36.0015 419.583 37.2741L421.561 36.9831C421.365 35.645 421.103 34.3279 420.78 33.0351L418.84 33.5196ZM419.954 41.0848C419.984 41.7192 420 42.3578 420 43H422C422 42.3255 421.984 41.6548 421.951 40.9882L419.954 41.0848ZM420 43C420 43.6422 419.984 44.2808 419.954 44.9152L421.951 45.0118C421.984 44.3452 422 43.6745 422 43H420ZM419.583 48.7259C419.396 49.9985 419.147 51.2511 418.84 52.4804L420.78 52.965C421.103 51.6721 421.365 50.355 421.561 49.0169L419.583 48.7259ZM417.73 56.1428C417.298 57.3498 416.809 58.5292 416.264 59.6779L418.072 60.5343C418.644 59.3264 419.159 58.086 419.613 56.8167L417.73 56.1428ZM414.457 63.0518C413.799 64.1483 413.088 65.2097 412.328 66.2327L413.933 67.4253C414.732 66.3501 415.48 65.2343 416.172 64.0816L414.457 63.0518ZM409.898 69.1906C409.04 70.1364 408.136 71.0399 407.191 71.8977L408.534 73.3792C409.528 72.4777 410.478 71.5282 411.379 70.5342L409.898 69.1906ZM404.233 74.3279C403.21 75.0878 402.148 75.7988 401.052 76.4574L402.082 78.1719C403.234 77.4795 404.35 76.7322 405.425 75.9334L404.233 74.3279ZM397.678 78.2644C396.529 78.8087 395.35 79.2984 394.143 79.7303L394.817 81.6134C396.086 81.1591 397.326 80.6441 398.534 80.0718L397.678 78.2644ZM390.48 80.8399C389.251 81.1469 387.999 81.3956 386.726 81.5828L387.017 83.5615C388.355 83.3647 389.672 83.1032 390.965 82.7803L390.48 80.8399ZM382.915 81.9538C382.281 81.9845 381.642 82 381 82V84C381.674 84 382.345 83.9837 383.012 83.9515L382.915 81.9538ZM381 82C380.335 82 379.674 81.9834 379.018 81.9505L378.918 83.948C379.608 83.9825 380.302 84 381 84V82ZM375.077 81.5533C373.762 81.3529 372.468 81.0868 371.199 80.7583L370.698 82.6945C372.032 83.0399 373.393 83.3198 374.776 83.5305L375.077 81.5533ZM367.422 79.5715C366.178 79.1097 364.965 78.5863 363.785 78.005L362.901 79.799C364.142 80.4103 365.418 80.9607 366.725 81.4464L367.422 79.5715ZM360.327 76.076C359.205 75.3737 358.122 74.6158 357.081 73.8063L355.853 75.3852C356.948 76.236 358.086 77.0326 359.265 77.771L360.327 76.076ZM354.081 71.2202C353.126 70.3085 352.216 69.3487 351.357 68.3448L349.838 69.6452C350.741 70.7003 351.696 71.709 352.7 72.6672L354.081 71.2202ZM348.937 65.2095C348.561 64.6674 348.198 64.1154 347.849 63.5539L346.151 64.6095C346.517 65.1998 346.899 65.7801 347.294 66.3498L348.937 65.2095ZM346.151 63.5539C345.802 64.1154 345.439 64.6674 345.063 65.2095L346.706 66.3498C347.101 65.78 347.483 65.1998 347.849 64.6095L346.151 63.5539ZM342.643 68.3448C341.784 69.3487 340.874 70.3085 339.919 71.2202L341.3 72.6672C342.304 71.709 343.259 70.7003 344.162 69.6452L342.643 68.3448ZM336.919 73.8063C335.878 74.6158 334.795 75.3737 333.673 76.076L334.735 77.771C335.914 77.0326 337.052 76.236 338.147 75.3852L336.919 73.8063ZM330.215 78.005C329.035 78.5863 327.822 79.1097 326.578 79.5715L327.275 81.4464C328.582 80.9607 329.858 80.4103 331.099 79.799L330.215 78.005ZM322.801 80.7583C321.532 81.0868 320.238 81.3529 318.923 81.5533L319.224 83.5305C320.607 83.3198 321.968 83.0399 323.302 82.6945L322.801 80.7583ZM314.982 81.9505C314.326 81.9834 313.665 82 313 82V84C313.698 84 314.392 83.9825 315.082 83.948L314.982 81.9505ZM313 82C312.335 82 311.674 81.9834 311.018 81.9505L310.918 83.948C311.608 83.9825 312.302 84 313 84V82ZM307.077 81.5533C305.762 81.3529 304.468 81.0868 303.199 80.7583L302.698 82.6945C304.032 83.0399 305.393 83.3198 306.776 83.5305L307.077 81.5533ZM299.422 79.5715C298.178 79.1097 296.965 78.5863 295.785 78.005L294.901 79.799C296.142 80.4103 297.418 80.9607 298.725 81.4464L299.422 79.5715ZM292.327 76.076C291.205 75.3737 290.122 74.6158 289.081 73.8063L287.853 75.3852C288.948 76.236 290.086 77.0326 291.265 77.771L292.327 76.076ZM286.081 71.2202C285.126 70.3085 284.216 69.3487 283.357 68.3448L281.838 69.6452C282.741 70.7003 283.696 71.709 284.7 72.6672L286.081 71.2202ZM280.937 65.2095C280.561 64.6674 280.198 64.1154 279.849 63.5539L278.151 64.6095C278.517 65.1998 278.899 65.7801 279.294 66.3498L280.937 65.2095ZM278.151 63.5539C277.802 64.1154 277.439 64.6674 277.063 65.2095L278.706 66.3498C279.101 65.78 279.483 65.1998 279.849 64.6095L278.151 63.5539ZM274.643 68.3448C273.784 69.3487 272.874 70.3085 271.919 71.2202L273.3 72.6672C274.304 71.709 275.259 70.7003 276.162 69.6452L274.643 68.3448ZM268.919 73.8063C267.878 74.6158 266.795 75.3737 265.673 76.076L266.735 77.771C267.914 77.0326 269.052 76.236 270.147 75.3852L268.919 73.8063ZM262.215 78.005C261.035 78.5863 259.822 79.1097 258.578 79.5715L259.275 81.4464C260.582 80.9607 261.858 80.4103 263.099 79.799L262.215 78.005ZM254.801 80.7583C253.532 81.0868 252.238 81.3529 250.923 81.5533L251.224 83.5305C252.607 83.3198 253.968 83.0399 255.302 82.6945L254.801 80.7583ZM246.982 81.9505C246.326 81.9834 245.665 82 245 82V84C245.698 84 246.392 83.9825 247.082 83.948L246.982 81.9505ZM245 82C244.335 82 243.674 81.9834 243.018 81.9505L242.918 83.948C243.608 83.9825 244.302 84 245 84V82ZM239.077 81.5533C237.762 81.3529 236.468 81.0868 235.199 80.7583L234.698 82.6945C236.032 83.0399 237.393 83.3198 238.776 83.5305L239.077 81.5533ZM231.422 79.5715C230.178 79.1097 228.965 78.5863 227.785 78.0049L226.901 79.799C228.142 80.4103 229.418 80.9607 230.725 81.4464L231.422 79.5715ZM224.327 76.076C223.205 75.3737 222.122 74.6158 221.081 73.8063L219.853 75.3851C220.948 76.236 222.086 77.0326 223.265 77.771L224.327 76.076ZM218.081 71.2202C217.126 70.3085 216.216 69.3487 215.357 68.3448L213.838 69.6452C214.741 70.7003 215.696 71.709 216.7 72.6672L218.081 71.2202ZM212.937 65.2095C212.561 64.6674 212.198 64.1154 211.849 63.5539L210.151 64.6095C210.517 65.1998 210.899 65.78 211.294 66.3498L212.937 65.2095ZM210.151 63.5539C209.802 64.1154 209.439 64.6674 209.063 65.2095L210.706 66.3498C211.101 65.78 211.483 65.1998 211.849 64.6095L210.151 63.5539ZM206.643 68.3448C205.784 69.3487 204.874 70.3085 203.919 71.2202L205.3 72.6672C206.304 71.709 207.259 70.7003 208.162 69.6452L206.643 68.3448ZM200.919 73.8063C199.878 74.6158 198.795 75.3737 197.673 76.076L198.735 77.771C199.914 77.0326 201.052 76.236 202.147 75.3851L200.919 73.8063ZM194.215 78.0049C193.035 78.5863 191.822 79.1097 190.578 79.5715L191.275 81.4464C192.582 80.9607 193.858 80.4103 195.099 79.799L194.215 78.0049ZM186.801 80.7583C185.532 81.0868 184.238 81.3529 182.923 81.5533L183.224 83.5305C184.607 83.3198 185.968 83.0399 187.302 82.6945L186.801 80.7583ZM178.982 81.9505C178.326 81.9834 177.665 82 177 82V84C177.698 84 178.392 83.9825 179.082 83.948L178.982 81.9505ZM177 82C176.335 82 175.674 81.9834 175.018 81.9505L174.918 83.948C175.608 83.9825 176.302 84 177 84V82ZM171.077 81.5533C169.762 81.3529 168.468 81.0868 167.199 80.7583L166.698 82.6945C168.032 83.0399 169.393 83.3198 170.776 83.5305L171.077 81.5533ZM163.422 79.5715C162.178 79.1097 160.965 78.5863 159.785 78.0049L158.901 79.799C160.142 80.4103 161.418 80.9607 162.725 81.4464L163.422 79.5715ZM156.327 76.076C155.205 75.3737 154.122 74.6158 153.081 73.8063L151.853 75.3851C152.948 76.236 154.086 77.0326 155.265 77.771L156.327 76.076ZM150.081 71.2202C149.126 70.3085 148.216 69.3487 147.357 68.3448L145.838 69.6452C146.741 70.7003 147.696 71.709 148.7 72.6672L150.081 71.2202ZM144.937 65.2095C144.561 64.6674 144.198 64.1154 143.849 63.5539L142.151 64.6095C142.517 65.1998 142.899 65.78 143.294 66.3498L144.937 65.2095ZM142.151 63.5539C141.802 64.1154 141.439 64.6674 141.063 65.2095L142.706 66.3498C143.101 65.78 143.483 65.1998 143.849 64.6095L142.151 63.5539ZM138.643 68.3448C137.784 69.3487 136.874 70.3085 135.919 71.2202L137.3 72.6672C138.304 71.709 139.259 70.7003 140.162 69.6452L138.643 68.3448ZM132.919 73.8063C131.878 74.6158 130.795 75.3737 129.673 76.076L130.735 77.771C131.914 77.0326 133.052 76.236 134.147 75.3851L132.919 73.8063ZM126.215 78.0049C125.035 78.5863 123.822 79.1097 122.578 79.5715L123.275 81.4464C124.582 80.9607 125.858 80.4103 127.099 79.799L126.215 78.0049ZM118.801 80.7583C117.532 81.0868 116.238 81.3529 114.923 81.5533L115.224 83.5305C116.607 83.3198 117.968 83.0399 119.302 82.6945L118.801 80.7583ZM110.982 81.9505C110.326 81.9834 109.665 82 109 82V84C109.698 84 110.392 83.9825 111.082 83.948L110.982 81.9505ZM109 82C108.335 82 107.674 81.9834 107.018 81.9505L106.918 83.948C107.608 83.9825 108.302 84 109 84V82ZM103.077 81.5533C101.762 81.3529 100.468 81.0868 99.1987 80.7583L98.6975 82.6945C100.032 83.0399 101.393 83.3198 102.776 83.5305L103.077 81.5533ZM95.4217 79.5715C94.1784 79.1097 92.9649 78.5863 91.7851 78.005L90.9011 79.799C92.1417 80.4103 93.4177 80.9607 94.7253 81.4464L95.4217 79.5715ZM88.3265 76.076C87.2052 75.3737 86.1221 74.6158 85.081 73.8063L83.8534 75.3852C84.9476 76.236 86.0861 77.0326 87.2649 77.771L88.3265 76.076ZM82.0811 71.2202C81.1256 70.3085 80.2163 69.3487 79.3571 68.3448L77.8376 69.6452C78.7406 70.7003 79.6963 71.709 80.7005 72.6672L82.0811 71.2202ZM76.9373 65.2095C76.5611 64.6674 76.1983 64.1154 75.8494 63.5539L74.1506 64.6095C74.5174 65.1998 74.8988 65.78 75.2942 66.3498L76.9373 65.2095Z" fill="#292929"/>
</svg>
